<?xml version="1.0" encoding="UTF-8"?>
<svg id="Layer_2" data-name="Layer 2" xmlns="http://www.w3.org/2000/svg" viewBox="0 0 304.08 338.77">
  <defs>
    <style>
      .cls-1 {
        fill: #fff;
      }
    </style>
  </defs>
  <g id="Layer_1-2" data-name="Layer 1">
    <path class="cls-1" d="M165.94,22.47h0c.44,0,.88,0,1.32.02,21.78.58,46.46,15.86,67.71,41.92,23.1,28.32,39.82,65.75,47.07,105.4,4.59,25.1,5,49.62,1.16,70.9-3.52,19.55-10.48,35.9-20.11,47.27-9.69,11.44-21.53,17.24-35.19,17.24-.44,0-.88,0-1.33-.02-21.78-.58-46.46-15.86-67.71-41.92-23.1-28.32-39.82-65.75-47.07-105.4-4.59-25.1-5-49.62-1.16-70.89,3.52-19.55,10.48-35.9,20.11-47.27,9.69-11.44,21.54-17.24,35.19-17.24M165.94,4.47c-55.81,0-88.04,69.54-72.1,156.61,16.1,88.01,75.31,160.59,132.25,162.12.61.02,1.22.02,1.82.02,55.81,0,88.04-69.54,72.1-156.61C283.91,78.6,224.7,6.02,167.76,4.49c-.61-.02-1.22-.02-1.82-.02h0Z"/>
    <path class="cls-1" d="M116.29,164.96c-17.58-76.52,4.27-139.07,48.79-139.71,44.53-.64,96.06,60.62,112.45,137.4,14.02,65.67-2.17,137.86-48.79,139.71-44.5,1.77-94.87-60.88-112.45-137.4ZM215.48,284.59l5.16.65c-2.2-10.63,4.84-10.78,8.45-.81,1.64.59,8.31-.98,9.39-2.28.37-.44-2.5-9.33,1.54-10.11,3.51-.67,5.58,5.62,5.9,5.71.73.19,4.58-2.7,4.42-3.35-.71-.82-1.35-1.64-1.95-2.7-8.88-15.82-21.22-38.97-29.07-55.64-2.03-4.31-12.22-31.44-13.25-31.7-.38-.1-1.88.25-1.55,1.59,1.29,5.15,5.89,14.56,7.93,20.06,5.56,14.97,9.56,33.65,13.87,49.32,2.59,9.42,5.93,18.75,7.74,28.27-1.39-1.42-2.46-5.38-3.31-7.72-7.02-19.36-13.3-39.08-20.2-58.49l-8.18-31.76c-1.87.09-2.47-.97-1.53,2.55,2.39,8.86,4.62,18,6.61,27.11l8.03,69.3ZM209.19,282.43c.27.44,5.15,1.87,5.3,1.46-3.02-12.8-4.82-25.59-7.14-38.34-1.59-8.75-4.04-18.53-5.34-27.13-1.53-10.08-1.61-21.02-2.58-31.02-.3-2.35-1.47-2.2-2.6-3.09-.31,10.58,2.06,23.76,1.88,34.2-.09,5.46-1.12,11.35-1.46,16.76-.83,13.35-1.3,27.07-2.72,39.93.19.78,4.77,3.48,5.46,3.2.65-.26.18-8.17,5.1-4.95,3.48,2.28,3.15,7.39,4.11,8.99ZM261.24,255.67c-17.3-24.01-36.42-44.45-51.57-72.56-1.52-2.47-2.63-.81-1.52,1.91l13.89,24.38,28.8,65.34c.48-.79,3.16-3.11,3.24-3.77.19-1.61-3.53-7.45-1.18-10.96,2.71-4.04,6.12,2.53,6.91,2.3s1.82-4.23,3.06-4.28c-.14-1.69-1.1-1.61-1.64-2.37ZM188.77,272.03c.22.34,4.46,2.33,5.24,2.81l-1.42-61.75,2.36-28.05c-.04-2.5-2.06-4.62-2.58-2.09-1.65,8.15-1.49,18.76-3.25,26.93l-14.63,49.08c.11.48,4.91,5.2,5.16,5.19.33,0,.91-3.58,2.08-4.08,2.77-1.19,6.42,3.4,7.02,8.57.1.87-.36,2.8.03,3.39ZM212.2,183.6c5.32,6.45,11.17,12.3,16.27,19.29,10.4,14.26,22.95,35.27,33.16,51.06.51.79,1.09,1.65,1.35,2.67.39-1.07,2.9-5.2,2.69-6.14-.07-.32-2.34-3.49-2.91-5.78-1.25-5.03,1.49-7.82,4.37-6.49.61.28,1.71,1.75,1.84,1.74.31,0,1.37-6.17,1.16-6.74l-40.38-34-18.71-21.28c-1.03-.79-1.26,1.28-1.52,2.32.19,1.51,1.98,2.5,2.68,3.34ZM168.18,251.52c-.05.41,4.91,6.53,5.38,6.34l9.69-53.6c.9-3.44,8.28-22.17,7.9-23.84-.25-1.11-1.65-3.03-2.18-2.17-2.91,5.98-4.93,13.93-7.86,19.79-4.89,9.78-13.7,20.86-19.74,29.44-1.78,2.52-3.66,4.91-5.7,6.95-.18.8,3.9,6.87,4.62,7.06.6.16.85-1.44,1.39-1.78,3.65-2.31,8.44,5.45,7.2,11.26-.15.7-.69.48-.7.55ZM210.64,176.17l19.39,13.94,40.68,41.96c-.47-1.72,1.04-6.12.87-6.84-.18-.77-2.77-2.93-3.36-4.4-1.44-3.56-1.66-8.01.28-9.24.99-.63,3.24.04,3.61-.49.17-.24.24-7.98-.21-8.5-1.86.23-3.9-.77-5.88-1.56-10.65-4.21-25.18-9.67-35.64-15.47-6.05-3.35-13.11-9.69-19.24-13.63l-.48,4.22ZM128.5,171.61c-.11.56,2.11,7.88,2.59,8.61.93,1.42,4.41.52,6.18,6.03,2.42,7.51-1.25,7.79-1.1,9.38.13,1.46,6.82,17.05,7.77,17.8.53.42,3.57-1.84,6.2,2.44,3.92,6.39.53,9.57.8,11.07.15.85,3.82,6.78,4.15,6.76l19.9-41.09,12.66-16.48c.53-1.1-.43-2.54-.93-3.91-5.27,3.6-9.07,10.76-14.38,14.57l-31.73,18.39c-1.53-1.4-.45-2.02.24-2.78,9.34-6.28,17.44-16.58,26.46-23.29,5.38-4,12.28-5.75,18.26-8.34l-1.42-4.25c-6.69,1.49-12.77,5.24-19.69,6.03-4.81.55-10.45.19-15.45.22-6.1.05-12.59.23-18.91-.46-.58-.06-1.04-.38-1.61-.71ZM211.41,170.42c7.17,2.56,14.31,4.21,21.54,7.77l38.97,23.72c.25,0,.02-7.15-.38-8.22-.23-.6-5.08-1.69-5.81-9.16-.61-6.31,4.49-4.46,4.64-4.88.11-.32-1.91-7.36-1.63-8.95-5.47-.73-10.84-.4-16.16-.17-7.73.33-15.51,1.98-23.57,1.11-5.52-.59-12.11-3.87-17.76-4.86l.15,3.64ZM210.21,163.17c7.15.07,13.96-1.61,21.26-.93,6.73.63,14.85,2.79,21.82,3.99,5,.86,10.1,2.2,15.04,2.66-.55-1.6-1.72-8.63-2.17-9.24-.47-.64-4.5-.85-5.99-6.08-1.98-6.96,2.27-7.42,2.13-8.62-.16-1.35-2.74-7.02-3.21-8.98-15.81,10.04-30.85,23.33-50.31,22.99l1.43,4.2ZM121.62,107.06c.41,1.79-.32,6.2.1,7.44.71,2.1,5.4,4.57,4.52,10.84-.67,4.8-4.56,2.07-4.75,4.49-.07.97,1.65,15.26,1.98,16.35.65,2.16,2.99,2.14,4.32,4.34,1.8,2.97,2.44,7.54,1.22,9.62-.7,1.2-2.7,1.27-2.89,2.15-.08.34,2.23,7.14,2.23,8.62,4.86-2.3,10.52-2.15,15.79-3.11,7.19-1.3,15.47-4.47,22.75-4.68,4.64-.13,10.43,1.03,15.35,1.25.54.02,1.59.82,1.61.72.04-.17-.63-3.46-.56-4.3-6.93-1.42-13.65-1.86-20.71-4.23-12.83-4.3-26.11-11.78-39.04-17.6-1.3-1.52-.96-1.87.17-1.68,12.96,2.2,27.89,9.46,41.03,11.91,6.11,1.97,12.33,7,18.46,9.44l-.78-3.1c-6.48-5.67-13.45-8.55-20.08-13.72l-40.72-34.74ZM208.04,157.55c4.94-2.21,9.21-6.15,13.87-9.07l36.61-13.21c.19-.54-2.28-7.09-2.85-7.88-1.02-1.41-4.36.53-6.58-4.88-2.79-6.78.35-8.44.26-9.12-.29-2.1-3.27-5.9-4-8.11-12.11,17.41-22.23,39.2-38.55,48.69l1.24,3.57ZM227.6,78.96c-.84,4.49-1.94,8.8-3.07,12.99-3.48,12.81-8.26,32.78-13.07,43.26-1.13,2.46-7.34,11.35-7.48,13.05-.1,1.31,1.16,2.18,1.5,3.56l11.15-17.51,28.14-29.75c.07-.32-3.48-6.36-4.06-6.76-2.13-1.46-3.93,1.49-6.77-3.16-3.12-5.11-.79-8.19-1.21-9.52-.33-1.05-2.85-4.18-3.63-5.16-.62-.78-1.38-.87-1.49-1.01-1.03-1.26-2.67-3.4-3.88-4.95-.62-.8-1.04-2.1-1.11-2.17-.38-.37-2.32,6.28-6.39,1.12-3.29-4.16-1.99-8.81-3.28-10.71-.56-.83-10.4-8.83-10.78-8.46-1.4,1.35-1.03,6.32-5.26,3.24-3.95-2.89-3.47-9.51-3.79-9.9-.51-.64-10.54-4.38-11.18-4.21-.33.09.17,2.25.02,3.18-.66,4.21-4.1,4.89-6.71.53-1.21-2.02-1.41-4.16-1.83-4.86-.6-1.01-3.49-.82-4.29-.77,2.39,6.62,3.36,13.65,5.09,20.43,4.47,17.51,10.41,35.35,13.84,52.93.73,3.72,3.56,25.82,4.27,26.91.52.79,2.23,1.01,2.43.59.32-.71-2.76-18.52-3.12-21.58-2.32-19.7-3-44.86-3.71-64.28-.12-3.18-.61-7.15.23-9.51.61.46.58,2.1.68,2.89,2.41,18.71,5.31,40.65,6.92,58.93,1.05,11.89.4,23.06,1.49,34.98l1.8.74c.3-8.79-.47-18.23.21-26.79,1.59-19.92,6.6-38.5,8.74-58.09l1.02.98c-2.54,28.03-1.69,58.96-8.65,83.19-.55,1.84,2.26,4.08,2.63,3.47.22-.36,1.48-8.77,1.86-10.36,3.9-16.15,9.54-27.28,15.35-40.87,1.87-4.37,3.51-9.93,5.46-14.06.26-.55,1.45-3.08,1.93-2.53ZM127.44,79.67c-.05.14-.76.26-1.02,1.04-.3.88-1.75,4.66-1.68,5.2.21,1.64,4.06,4.65,3.33,10.23s-4.86,1.71-5.45,2.58c-.4.59-.53,6.25-.76,7.6,7.22,3.8,14.42,9.71,21.62,14.68,7.59,5.25,15.21,10.01,22.79,15.46,2.02.97,16.24,16.51,16.69,15.68.06-.12.14-3.39.02-3.57-.05-.08-.73-.15-1.19-.7-8.16-9.68-16.28-17.82-24.44-27.98-8.53-10.63-19.9-24.66-27.75-36.32-.45-.67-2.35-3.35-2.16-3.9.4-1.18,7.96,8.54,8.88,9.58,9.82,11.02,21.39,22.47,30.79,34.11,5.4,6.69,10.27,15.02,15.55,22,.46.6.77,1.7.82,1.75.16.15,1.7-1.32,1.73-1.48.25-1.39-15.37-24.08-17.44-27.73-10.06-17.67-19.03-37.93-29-55.83l-1.02-3.01.75-.37c15.68,27.79,33.07,53.37,46.97,83.32,1.17,2.15,1.87,1.26,2.86.72-4-9.16-8.94-17.75-12.71-27.1-7.43-18.45-15.61-44.05-22.19-63.47-.65-1.93-1.51-4.08-1.47-5.87-.42-.39-4.43,1.87-4.51,2.22-.1.46,3.61,7.08-.02,9.49s-5.34-3.71-6.79-3.67c-1.27.03-5.32,7.99-6.98,8.74-.09.49,4.64,5.32,2.7,10.76-2.1,5.87-6.29-1.35-7.02-1.35-.22,0-1.63,4.63-1.91,5.4-.2.55.06,1.64,0,1.79ZM189.42,142l1.84-1.15c-11.22-32.98-15.38-66.55-22.96-99.84l-3.94.04c2.01,9.76-4.61,12.73-8.07,2.29l-4.01,2.66c12.59,31.95,27.42,62.63,37.13,96.01Z"/>
    <path class="cls-1" d="M143.56.22c2.03.21,3.9,1.12,5.94,1.32-76.06,19.88-68.88,135.7-50.45,194.1,16.04,50.8,56.04,120.25,121.51,130.89,8.07,1.31,14.57,1.07,24.51-1.08-48.31,31.05-101.45,2.2-133.47-36.51-1.17-1.42-7.46-11.72-8.93-10.51-1.08,6.22-6.42,10.47-10.18,15.13l-37.42,32.4c1.22-21.47-17.59-41.18-38.82-42.14,14.09-11.66,28.05-28.17,42.66-38.74,6.98-5.05,9.78-5.69,18.5-4.7,17.23-12.22,3.72-5.61.65-7.78-.51-.36-4.9-9.61-5.58-11.18-20.74-48.06-25.86-124.96-1.13-171.97C84.19,25.04,113.9-2.77,143.56.22Z"/>
    <path class="cls-1" d="M11.19,289.2c18.73-3.43,39.56,15.52,38.3,34.31-1.85,27.6-41.21,13.74-48.34-9.74-2.78-9.15-.95-22.55,10.04-24.56Z"/>
  </g>
</svg>