<svg width="364" height="188" viewBox="0 0 364 188" fill="none" xmlns="http://www.w3.org/2000/svg">
<g clip-path="url(#clip0_27_8112)">
<path d="M91.4443 12.4169C91.6828 12.4169 91.9268 12.4169 92.1708 12.428C104.083 12.7485 117.582 21.1922 129.206 35.593C141.839 51.2426 150.984 71.9264 154.949 93.837C157.461 107.707 157.683 121.257 155.587 133.016C153.662 143.82 149.858 152.855 144.584 159.138C139.282 165.459 132.805 168.665 125.335 168.665C125.096 168.665 124.852 168.665 124.608 168.653C112.696 168.333 99.1973 159.889 87.5734 145.488C74.9401 129.839 65.7951 109.155 61.8299 87.2445C59.3176 73.3742 59.0958 59.8245 61.1921 48.0707C63.1165 37.2673 66.9209 28.2323 72.1949 21.9493C77.4967 15.6275 83.9742 12.4224 91.4443 12.4224M91.4443 2.47012C60.9204 2.47012 43.2959 40.8979 52.0083 89.0128C60.815 137.647 93.2023 177.755 124.342 178.6C124.675 178.611 125.007 178.611 125.34 178.611C155.864 178.611 173.489 140.184 164.776 92.0687C155.964 43.4343 123.582 3.32665 92.4426 2.48118C92.1098 2.47012 91.7771 2.47012 91.4443 2.47012Z" fill="#1D3869"/>
<path d="M153.252 89.9025C163.001 132.187 150.884 166.753 126.194 167.106C101.499 167.46 72.9214 133.608 63.8319 91.179C56.0567 54.8897 65.0353 14.9976 90.8898 13.9752C115.568 12.9971 143.503 47.6175 153.252 89.9025ZM98.2435 23.7949L95.3818 23.4358C96.6019 29.3099 92.6977 29.3928 90.6956 23.8834C89.7861 23.5573 86.0871 24.4249 85.4882 25.1433C85.283 25.3864 86.8746 30.299 84.6341 30.7301C82.6875 31.1003 81.5396 27.6245 81.3621 27.5747C80.9573 27.4697 78.8221 29.0667 78.9109 29.4259C79.3046 29.8791 79.6596 30.3322 79.9923 30.918C84.917 39.6601 91.7604 52.4528 96.1139 61.6646C97.2397 64.0463 102.891 79.0383 103.462 79.182C103.673 79.2373 104.505 79.0439 104.322 78.3034C103.606 75.4575 101.055 70.2575 99.9238 67.2182C96.8404 58.9458 94.6221 48.6233 92.2318 39.964C90.7955 34.7585 88.9432 29.6028 87.9394 24.342C88.7103 25.1267 89.3037 27.315 89.7751 28.6081C93.6682 39.3064 97.1509 50.2037 100.978 60.9297L105.514 78.4802C106.551 78.4305 106.884 79.0162 106.362 77.0711C105.037 72.1751 103.8 67.1243 102.697 62.0901L98.2435 23.7949ZM101.732 24.9886C101.582 24.7454 98.8757 23.9552 98.7925 24.1818C100.467 31.255 101.466 38.3228 102.752 45.3684C103.634 50.2037 104.993 55.6081 105.714 60.3605C106.562 65.9307 106.606 71.9761 107.144 77.5021C107.311 78.8007 107.96 78.7178 108.586 79.2097C108.758 73.3632 107.444 66.0799 107.544 60.3107C107.594 57.2935 108.165 54.0387 108.353 51.0492C108.814 43.672 109.074 36.0903 109.862 28.9839C109.756 28.5528 107.217 27.0608 106.834 27.2155C106.473 27.3592 106.734 31.7303 104.006 29.9509C102.076 28.691 102.259 25.8672 101.726 24.983L101.732 24.9886ZM72.8604 39.7761C82.4546 53.0441 93.0582 64.3392 101.46 79.8728C102.303 81.2377 102.919 80.3204 102.303 78.8173L94.5999 65.3449L78.628 29.2381C78.3618 29.6746 76.8756 30.9566 76.8312 31.3214C76.7258 32.211 78.7889 35.4382 77.4856 37.3778C75.9827 39.6104 74.0916 35.9798 73.6535 36.1069C73.2154 36.234 72.6441 38.4444 71.9565 38.472C72.0341 39.4059 72.5665 39.3617 72.866 39.7817L72.8604 39.7761ZM113.056 30.7356C112.934 30.5477 110.583 29.448 110.15 29.1828L110.938 63.3058L109.629 78.8063C109.651 80.1878 110.771 81.3593 111.06 79.9612C111.975 75.4575 111.886 69.5944 112.862 65.0797L120.976 37.9581C120.915 37.6928 118.253 35.0846 118.114 35.0901C117.931 35.0901 117.609 37.0684 116.96 37.3447C115.424 38.0023 113.4 35.4659 113.067 32.6089C113.012 32.1281 113.267 31.0616 113.051 30.7356H113.056ZM100.062 79.6075C97.1121 76.0433 93.8678 72.8105 91.0395 68.9479C85.2719 61.0678 78.3119 49.4577 72.6497 40.7321C72.3669 40.2956 72.0452 39.8203 71.901 39.2567C71.6847 39.848 70.2927 42.1302 70.4092 42.6497C70.448 42.8265 71.7069 44.5782 72.023 45.8437C72.7162 48.6233 71.1967 50.165 69.5995 49.43C69.2612 49.2753 68.6512 48.463 68.5791 48.4685C68.4072 48.4685 67.8193 51.8781 67.9358 52.1931L90.3296 70.9814L100.706 82.7408C101.277 83.1773 101.405 82.0334 101.549 81.4587C101.443 80.6243 100.451 80.0772 100.062 79.6131V79.6075ZM124.475 42.0694C124.503 41.8429 121.752 38.4609 121.491 38.5659L116.117 68.1853C115.618 70.0862 111.526 80.4364 111.736 81.3593C111.875 81.9727 112.651 83.0336 112.945 82.5584C114.559 79.2539 115.679 74.8607 117.304 71.6225C120.016 66.218 124.902 60.0952 128.252 55.3539C129.239 53.9614 130.281 52.6407 131.413 51.5134C131.513 51.0713 129.25 47.717 128.851 47.612C128.518 47.5236 128.379 48.4077 128.08 48.5956C126.056 49.8721 123.399 45.584 124.087 42.3734C124.17 41.9865 124.469 42.1081 124.475 42.0694ZM100.922 83.7078L90.1688 76.0046L67.6086 52.8175C67.8692 53.768 67.0318 56.1994 67.1261 56.5973C67.2259 57.0228 68.6623 58.2164 68.9895 59.0287C69.7881 60.996 69.9101 63.455 68.8342 64.1347C68.2852 64.4829 67.0374 64.1126 66.8322 64.4055C66.7379 64.5381 66.6991 68.8153 66.9486 69.1026C67.9801 68.9755 69.1115 69.5281 70.2095 69.9647C76.1158 72.2911 84.1738 75.3083 89.9747 78.5134C93.3299 80.3646 97.2452 83.8681 100.645 86.0453L100.911 83.7133L100.922 83.7078ZM146.475 86.2277C146.536 85.9182 145.305 81.8732 145.039 81.4698C144.523 80.6851 142.593 81.1824 141.611 78.1376C140.269 73.9876 142.305 73.8329 142.221 72.9542C142.149 72.1474 138.439 63.5324 137.912 63.118C137.618 62.8859 135.933 64.1347 134.474 61.7696C132.3 58.2385 134.18 56.4812 134.03 55.6523C133.947 55.1826 131.912 51.9057 131.729 51.9167L120.693 74.6231L113.672 83.7299C113.378 84.3378 113.91 85.1335 114.188 85.8906C117.11 83.9012 119.218 79.9446 122.162 77.8392L139.759 67.6769C140.608 68.4505 140.009 68.7932 139.626 69.2131C134.446 72.6835 129.954 78.3752 124.952 82.0832C121.968 84.2936 118.142 85.2606 114.825 86.6919L115.613 89.0404C119.323 88.217 122.695 86.1448 126.532 85.7082C129.2 85.4043 132.328 85.6032 135.101 85.5867C138.484 85.559 142.083 85.4596 145.588 85.8409C145.909 85.874 146.165 86.0508 146.481 86.2332L146.475 86.2277ZM100.501 86.8853C96.5243 85.4706 92.5646 84.5588 88.555 82.5916L66.9431 69.4839C66.8044 69.4839 66.932 73.435 67.1538 74.0263C67.2814 74.3578 69.9711 74.9602 70.3759 79.0881C70.7142 82.575 67.8859 81.5527 67.8027 81.7848C67.7417 81.9616 68.8619 85.8519 68.7066 86.7305C71.7402 87.1339 74.7183 86.9516 77.6686 86.8245C81.9555 86.6421 86.2701 85.7303 90.74 86.2111C93.8013 86.5371 97.456 88.3497 100.589 88.8967L100.506 86.8853H100.501ZM101.166 90.8916C97.2008 90.8529 93.4242 91.7813 89.3758 91.4055C85.6434 91.0574 81.1403 89.8638 77.2749 89.2007C74.502 88.7254 71.6736 87.9849 68.934 87.7308C69.239 88.6149 69.8879 92.4997 70.1375 92.8368C70.3981 93.1904 72.6331 93.3065 73.4594 96.1966C74.5574 100.043 72.2005 100.297 72.2781 100.96C72.3669 101.706 73.7977 104.839 74.0583 105.922C82.8262 100.374 91.167 93.0302 101.959 93.2181L101.166 90.8971V90.8916ZM150.296 121.898C150.069 120.909 150.474 118.472 150.241 117.787C149.847 116.626 147.246 115.261 147.734 111.796C148.106 109.144 150.263 110.653 150.368 109.315C150.407 108.779 149.453 100.883 149.27 100.28C148.91 99.0867 147.612 99.0977 146.874 97.882C145.876 96.2408 145.521 93.7154 146.198 92.566C146.586 91.9029 147.695 91.8642 147.801 91.3779C147.845 91.19 146.564 87.4324 146.564 86.6145C143.869 87.8855 140.73 87.8026 137.807 88.3331C133.82 89.0515 129.228 90.8032 125.19 90.9193C122.617 90.9911 119.406 90.3501 116.678 90.2285C116.378 90.2174 115.796 89.7754 115.785 89.8306C115.763 89.9246 116.134 91.7426 116.095 92.2068C119.939 92.9915 123.665 93.2346 127.581 94.5443C134.696 96.9205 142.061 101.054 149.231 104.27C149.952 105.11 149.764 105.303 149.137 105.198C141.95 103.983 133.67 99.9708 126.383 98.617C122.994 97.5284 119.545 94.7488 116.145 93.4004L116.578 95.1135C120.171 98.2467 124.037 99.8382 127.714 102.695L150.296 121.892V121.898ZM102.37 93.9972C99.6299 95.2185 97.2618 97.3957 94.6775 99.0093L74.3744 106.309C74.2691 106.608 75.6389 110.227 75.955 110.664C76.5206 111.443 78.3729 110.371 79.6041 113.36C81.1514 117.107 79.41 118.024 79.4599 118.4C79.6207 119.561 81.2734 121.66 81.6782 122.882C88.3941 113.261 94.0065 101.22 103.057 95.9755L102.37 94.0028V93.9972ZM91.5164 137.426C91.9823 134.945 92.5923 132.563 93.219 130.248C95.1489 123.169 97.7998 112.134 100.467 106.342C101.094 104.983 104.538 100.07 104.616 99.1309C104.671 98.407 103.972 97.9262 103.784 97.1636L97.6001 106.84L81.9943 123.279C81.9555 123.456 83.9243 126.794 84.2459 127.015C85.4272 127.822 86.4254 126.192 88.0004 128.761C89.7307 131.585 88.4385 133.287 88.6714 134.022C88.8545 134.602 90.252 136.332 90.6846 136.873C91.0284 137.304 91.4499 137.354 91.5109 137.432C92.0821 138.128 92.9916 139.31 93.6626 140.167C94.0065 140.609 94.2394 141.327 94.2782 141.366C94.489 141.571 95.5648 137.896 97.822 140.747C99.6465 143.046 98.9256 145.616 99.641 146.666C99.9515 147.124 105.409 151.545 105.619 151.341C106.396 150.595 106.191 147.848 108.536 149.55C110.727 151.147 110.461 154.805 110.638 155.021C110.921 155.374 116.484 157.441 116.838 157.347C117.021 157.298 116.744 156.104 116.827 155.59C117.193 153.264 119.101 152.888 120.549 155.297C121.22 156.413 121.331 157.596 121.563 157.983C121.896 158.541 123.499 158.436 123.943 158.408C122.617 154.75 122.079 150.865 121.12 147.119C118.641 137.443 115.347 127.584 113.444 117.87C113.04 115.814 111.47 103.601 111.076 102.999C110.788 102.563 109.84 102.441 109.729 102.673C109.551 103.065 111.259 112.907 111.459 114.598C112.746 125.484 113.123 139.388 113.517 150.119C113.583 151.877 113.855 154.07 113.389 155.375C113.051 155.12 113.067 154.214 113.012 153.777C111.675 143.438 110.067 131.314 109.174 121.213C108.592 114.642 108.952 108.47 108.348 101.883L107.35 101.474C107.183 106.331 107.61 111.548 107.233 116.278C106.351 127.286 103.573 137.553 102.386 148.379L101.82 147.837C103.229 132.348 102.758 115.256 106.618 101.866C106.923 100.849 105.364 99.6116 105.159 99.9487C105.037 100.148 104.338 104.795 104.128 105.674C101.965 114.598 98.8369 120.749 95.6148 128.258C94.5777 130.673 93.6682 133.746 92.5868 136.028C92.4426 136.332 91.7826 137.73 91.5164 137.426ZM147.063 137.034C147.091 136.956 147.484 136.89 147.629 136.459C147.795 135.973 148.599 133.884 148.56 133.585C148.444 132.679 146.309 131.016 146.714 127.932C147.118 124.849 149.409 126.987 149.736 126.507C149.958 126.181 150.03 123.053 150.157 122.307C146.153 120.207 142.16 116.941 138.168 114.195C133.958 111.294 129.732 108.663 125.529 105.652C124.408 105.116 116.522 96.5281 116.273 96.9868C116.24 97.0531 116.195 98.8601 116.262 98.9596C116.289 99.0038 116.667 99.0425 116.922 99.3464C121.447 104.696 125.95 109.194 130.476 114.808C135.206 120.682 141.512 128.435 145.865 134.879C146.115 135.249 147.168 136.73 147.063 137.034C146.841 137.686 142.648 132.315 142.138 131.74C136.692 125.65 130.276 119.323 125.063 112.891C122.068 109.194 119.367 104.591 116.439 100.733C116.184 100.402 116.012 99.794 115.984 99.7664C115.896 99.6835 115.042 100.496 115.025 100.584C114.886 101.352 123.549 113.891 124.697 115.908C130.276 125.672 135.25 136.868 140.78 146.759L141.345 148.423L140.929 148.627C132.234 133.27 122.589 119.135 114.881 102.585C114.232 101.397 113.844 101.888 113.295 102.187C115.513 107.249 118.253 111.995 120.343 117.162C124.464 127.358 129 141.504 132.649 152.236C133.01 153.302 133.487 154.49 133.465 155.479C133.698 155.695 135.921 154.446 135.966 154.253C136.021 153.999 133.964 150.34 135.977 149.009C137.99 147.677 138.938 151.059 139.743 151.037C140.447 151.02 142.693 146.621 143.613 146.207C143.663 145.936 141.04 143.267 142.116 140.261C143.281 137.017 145.604 141.007 146.009 141.007C146.131 141.007 146.913 138.448 147.068 138.023C147.179 137.719 147.035 137.117 147.068 137.034H147.063ZM112.696 102.59L111.675 103.226C117.898 121.45 120.205 140.001 124.408 158.397L126.593 158.375C125.479 152.982 129.15 151.341 131.069 157.11L133.293 155.64C126.311 137.984 118.086 121.03 112.701 102.585L112.696 102.59Z" fill="#764599"/>
<path d="M79.6152 0.121561C80.741 0.237607 81.778 0.740473 82.9094 0.850993C40.7282 11.8367 44.7101 75.8388 54.9309 108.111C63.8264 136.183 89.7473 178.7 122.334 181.711C126.849 182.131 130.542 180.684 134.89 180.976C108.098 198.135 79.6429 181.059 61.8853 159.668C61.2365 158.883 57.7482 153.192 56.933 153.86C56.334 157.298 53.3726 159.646 51.2874 162.221L30.5351 180.125C31.2116 168.261 20.78 157.369 9.00634 156.839C16.8203 150.396 24.5623 141.272 32.6646 135.431C36.5356 132.641 38.0884 132.287 42.9243 132.834C52.4797 126.081 44.9874 129.734 43.2848 128.535C43.002 128.336 40.5674 123.224 40.1903 122.357C28.6883 95.7987 25.8489 53.3038 39.5636 27.3261C46.6899 13.8371 63.1664 -1.53071 79.6152 0.121561Z" fill="#1D3869"/>
<path d="M6.20573 159.812C16.593 157.916 28.1448 168.388 27.4461 178.772C26.4201 194.023 4.5919 186.364 0.637765 173.389C-0.903961 168.333 0.110916 160.928 6.20573 159.817V159.812Z" fill="#1D3869"/>
</g>
<g clip-path="url(#clip1_27_8112)">
<path d="M189.485 139L241.761 139C245.844 139 249.154 135.706 249.154 131.642C249.154 127.578 245.844 124.284 241.761 124.284L189.485 124.284C185.402 124.284 182.092 127.578 182.092 131.642C182.092 135.706 185.402 139 189.485 139Z" fill="url(#paint0_linear_27_8112)"/>
<path d="M262.348 139L294.045 139C298.128 139 301.438 135.706 301.438 131.642C301.438 127.578 298.128 124.284 294.045 124.284L262.348 124.284C258.265 124.284 254.955 127.578 254.955 131.642C254.955 135.706 258.265 139 262.348 139Z" fill="url(#paint1_linear_27_8112)"/>
<path d="M193.076 97.8581L272.755 97.8581C276.838 97.8581 280.148 94.5638 280.148 90.5C280.148 86.4362 276.838 83.1419 272.755 83.1418L193.076 83.1418C188.993 83.1418 185.683 86.4362 185.683 90.5C185.683 94.5638 188.993 97.8581 193.076 97.8581Z" fill="url(#paint2_linear_27_8112)"/>
<path d="M293.631 97.8582L328.607 97.8582C332.69 97.8582 336 94.5638 336 90.5C336 86.4362 332.69 83.1419 328.607 83.1419L293.631 83.1419C289.548 83.1419 286.238 86.4362 286.238 90.5C286.238 94.5638 289.548 97.8582 293.631 97.8582Z" fill="url(#paint3_linear_27_8112)"/>
<path d="M175.393 56.7163L195.973 56.7163C200.056 56.7163 203.366 53.4219 203.366 49.3581C203.366 45.2944 200.056 42 195.973 42L175.393 42C171.31 42 168 45.2943 168 49.3581C168 53.4219 171.31 56.7163 175.393 56.7163Z" fill="url(#paint4_linear_27_8112)"/>
<path d="M217.411 56.7163L297.09 56.7163C301.173 56.7163 304.483 53.4219 304.483 49.3581C304.483 45.2944 301.173 42 297.09 42L217.411 42C213.328 42 210.018 45.2943 210.018 49.3581C210.018 53.4219 213.328 56.7163 217.411 56.7163Z" fill="url(#paint5_linear_27_8112)"/>
</g>
<path d="M175.393 181.716L255.072 181.716C259.155 181.716 262.465 178.422 262.465 174.358C262.465 170.294 259.155 167 255.072 167L175.393 167C171.31 167 168 170.294 168 174.358C168 178.422 171.31 181.716 175.393 181.716Z" fill="url(#paint6_linear_27_8112)"/>
<path d="M276.393 181.716L356.072 181.716C360.155 181.716 363.465 178.422 363.465 174.358C363.465 170.294 360.155 167 356.072 167L276.393 167C272.31 167 269 170.294 269 174.358C269 178.422 272.31 181.716 276.393 181.716Z" fill="url(#paint7_linear_27_8112)"/>
<defs>
<linearGradient id="paint0_linear_27_8112" x1="249.154" y1="131.642" x2="182.092" y2="131.642" gradientUnits="userSpaceOnUse">
<stop stop-color="#764599"/>
<stop offset="0.99" stop-color="#1D3869"/>
</linearGradient>
<linearGradient id="paint1_linear_27_8112" x1="301.438" y1="131.642" x2="254.955" y2="131.642" gradientUnits="userSpaceOnUse">
<stop stop-color="#764599"/>
<stop offset="0.99" stop-color="#1D3869"/>
</linearGradient>
<linearGradient id="paint2_linear_27_8112" x1="280.148" y1="90.5" x2="185.683" y2="90.5" gradientUnits="userSpaceOnUse">
<stop stop-color="#764599"/>
<stop offset="0.99" stop-color="#1D3869"/>
</linearGradient>
<linearGradient id="paint3_linear_27_8112" x1="336" y1="90.5" x2="286.238" y2="90.5" gradientUnits="userSpaceOnUse">
<stop stop-color="#764599"/>
<stop offset="0.99" stop-color="#1D3869"/>
</linearGradient>
<linearGradient id="paint4_linear_27_8112" x1="203.366" y1="49.3581" x2="168" y2="49.3581" gradientUnits="userSpaceOnUse">
<stop stop-color="#764599"/>
<stop offset="0.99" stop-color="#1D3869"/>
</linearGradient>
<linearGradient id="paint5_linear_27_8112" x1="304.483" y1="49.3581" x2="210.01" y2="49.3581" gradientUnits="userSpaceOnUse">
<stop stop-color="#764599"/>
<stop offset="0.99" stop-color="#1D3869"/>
</linearGradient>
<linearGradient id="paint6_linear_27_8112" x1="262.465" y1="174.358" x2="168" y2="174.358" gradientUnits="userSpaceOnUse">
<stop stop-color="#764599"/>
<stop offset="0.99" stop-color="#1D3869"/>
</linearGradient>
<linearGradient id="paint7_linear_27_8112" x1="363.465" y1="174.358" x2="269" y2="174.358" gradientUnits="userSpaceOnUse">
<stop stop-color="#764599"/>
<stop offset="0.99" stop-color="#1D3869"/>
</linearGradient>
<clipPath id="clip0_27_8112">
<rect width="167" height="188" fill="white"/>
</clipPath>
<clipPath id="clip1_27_8112">
<rect width="168" height="97" fill="white" transform="translate(336 139) rotate(-180)"/>
</clipPath>
</defs>
</svg>
