<?xml version="1.0" encoding="iso-8859-1"?>
<!-- Generator: Adobe Illustrator 26.5.0, SVG Export Plug-In . SVG Version: 6.00 Build 0)  -->
<svg version="1.1" id="Layer_1" xmlns="http://www.w3.org/2000/svg" xmlns:xlink="http://www.w3.org/1999/xlink" x="0px" y="0px"
	 viewBox="0 0 418.559 65.71" style="enable-background:new 0 0 418.559 65.71;" xml:space="preserve">
<g>
	<g>
		<path style="fill:#444E69;" d="M23.907,2.956c-1.971,0.073-3.248,0.73-4.233,2.409l-6.022,10.146v6.825
			c0.693,1.643,2.445,1.861,4.124,1.935v0.949H5.986v-0.949c1.679-0.073,3.723-0.328,4.271-1.423v-7.045L4.125,5.438
			C3.066,3.687,2.044,3.103,0,2.956V2.007h10.256v0.949C8.322,3.065,7.702,3.431,7.154,3.869l5.694,9.854l5.584-9.818
			c-0.584-0.438-1.351-0.84-3.285-0.949V2.007h8.76V2.956z M35.149,23.469c-0.803,0.949-2.227,2.08-3.504,2.08
			c-1.971,0-2.92-1.351-2.993-2.299c-1.241,1.313-2.847,2.299-4.38,2.299c-1.971,0-3.65-1.204-3.65-3.284
			c0-1.022,0.255-2.081,0.767-2.92l7.263-2.628v-2.701c0-1.643-0.767-3.212-2.409-3.212c-0.985,0-1.934,1.204-2.007,3.065
			l-3.285,0.548v-0.365c1.095-3.285,4.708-4.562,6.46-4.562c3.322,0,4.526,1.752,4.49,4.453l-0.11,7.665
			c-0.036,1.496,0.767,1.861,1.497,1.861c0.584,0,1.168-0.365,1.862-1.059V23.469z M28.652,17.629
			c-0.949,0.438-3.285,1.46-4.307,1.971c-0.146,0.584-0.256,1.095-0.256,1.898c0,1.095,0.621,2.189,1.825,2.189
			c1.095,0,1.715-0.364,2.701-1.131L28.652,17.629z M43.58,25.221h-8.103v-0.84c1.643-0.109,2.117-0.474,2.409-1.095V4.38
			c0-1.241-0.183-1.752-2.701-1.971v-0.73L41.865,0l0.219,0.62l-1.059,1.314v21.352c0.365,0.73,1.059,0.985,2.555,1.095V25.221z
			 M59.128,22.374c-2.08,1.897-3.796,3.139-6.789,3.139c-3.833,0-6.789-3.029-6.789-7.264c0-5.183,3.175-8.723,7.665-8.723
			c3.613,0,5.621,2.044,5.621,5.292v0.657l-9.854-0.073c-0.073,0.401-0.109,1.059-0.109,1.861c0,3.724,2.336,6.169,5.438,6.169
			c1.862,0,2.811-0.657,4.271-1.898L59.128,22.374z M55.552,14.344c0-1.935-1.205-3.687-2.883-3.687c-1.825,0-3.103,1.46-3.541,3.76
			L55.552,14.344z"/>
	</g>
	<g>
		<path style="fill:#82A1C3;" d="M75.251,25.565c-1.94,0-3.536-0.563-4.506-0.971l-0.438-4.1h0.688
			c0.219,1.001,0.97,2.315,1.846,2.973c0.595,0.438,1.752,1.096,2.786,1.096c2.003,0,3.067-1.252,3.067-2.629
			c0-1.753-1.127-2.222-3.004-3.004c-3.537-1.503-4.789-2.41-4.789-4.789c0-2.66,2.66-4.475,6.197-4.475
			c1.659,0,2.942,0.438,3.787,0.813v3.975h-0.657c-0.094-1.064-0.5-2.316-1.408-2.879c-0.344-0.22-1.314-0.846-2.41-0.846
			c-1.972,0-2.973,1.221-2.973,2.41c0,1.596,0.813,2.253,3.224,3.192c3.286,1.314,4.6,2.347,4.6,4.663
			C81.26,23.844,78.569,25.565,75.251,25.565z"/>
		<path style="fill:#82A1C3;" d="M98.466,20.776l-0.845,3.912c-1.815,0.563-2.41,0.845-5.258,0.845
			c-4.945,0-8.512-3.536-8.512-8.043c0-4.6,3.787-7.792,8.575-7.792c2.379,0,3.693,0.438,5.508,0.876v4.131h-0.657
			c-0.094-1.063-0.532-2.253-1.408-2.816c-0.438-0.312-1.534-1.189-3.662-1.189c-3.411,0-5.352,2.849-5.352,6.229
			c0,4.443,2.503,7.573,6.478,7.573c1.283,0,2.191-0.532,2.598-0.876c0.939-0.72,1.596-1.847,1.815-2.974L98.466,20.776z"/>
		<path style="fill:#82A1C3;" d="M118.638,25.221h-7.323v-0.688c1.096-0.031,2.065-0.345,2.316-0.813v-5.634h-8.137v5.634
			c0.188,0.469,1.221,0.782,2.285,0.813v0.688h-7.261v-0.688c1.064-0.031,2.097-0.345,2.285-0.813V11.481
			c-0.188-0.469-1.221-0.782-2.285-0.845v-0.626h7.261v0.626c-1.064,0.062-2.097,0.376-2.285,0.845v5.32h8.137v-5.32
			c-0.25-0.469-1.22-0.782-2.316-0.845v-0.626h7.323v0.626c-1.095,0.062-2.065,0.376-2.316,0.845v12.237
			c0.25,0.469,1.221,0.782,2.316,0.813V25.221z"/>
		<path style="fill:#82A1C3;" d="M127.866,25.597c-4.82,0-7.605-3.317-7.605-7.918c0-4.663,3.849-8.012,8.669-8.012
			c4.882,0,7.605,3.349,7.605,7.761C136.535,22.248,132.686,25.597,127.866,25.597z M127.616,10.73
			c-2.253,0-4.444,2.504-4.444,6.229c0,4.381,2.097,7.542,5.853,7.542c2.378,0,4.601-2.41,4.601-6.196
			C133.625,13.704,131.309,10.73,127.616,10.73z"/>
		<path style="fill:#82A1C3;" d="M146.755,25.597c-4.82,0-7.605-3.317-7.605-7.918c0-4.663,3.849-8.012,8.669-8.012
			c4.882,0,7.605,3.349,7.605,7.761C155.424,22.248,151.575,25.597,146.755,25.597z M146.505,10.73
			c-2.253,0-4.444,2.504-4.444,6.229c0,4.381,2.097,7.542,5.852,7.542c2.378,0,4.601-2.41,4.601-6.196
			C152.514,13.704,150.198,10.73,146.505,10.73z"/>
		<path style="fill:#82A1C3;" d="M169.772,25.221h-13.144v-0.688c0.97-0.062,2.441-0.312,2.754-1.096V11.481
			c-0.188-0.469-1.221-0.751-2.285-0.813v-0.657h7.479v0.657c-1.064,0.062-2.316,0.376-2.503,0.845v12.55l4.319-0.125
			c1.627-0.062,2.691-1.596,2.723-3.599h0.657V25.221z"/>
		<path style="fill:#82A1C3;" d="M187.317,25.597c-4.82,0-7.605-3.317-7.605-7.918c0-4.663,3.849-8.012,8.669-8.012
			c4.882,0,7.605,3.349,7.605,7.761C195.986,22.248,192.136,25.597,187.317,25.597z M187.066,10.73
			c-2.253,0-4.444,2.504-4.444,6.229c0,4.381,2.097,7.542,5.852,7.542c2.378,0,4.601-2.41,4.601-6.196
			C193.075,13.704,190.759,10.73,187.066,10.73z"/>
		<path style="fill:#82A1C3;" d="M209.42,13.86h-0.657c-0.094-2.097-0.97-2.66-2.754-2.66h-3.38v5.915l3.255-0.125
			c1.564-0.062,2.253-0.094,2.472-1.847h0.626v5.133h-0.657c-0.188-1.94-0.814-1.972-2.441-1.972l-3.255-0.031v5.069
			c0.313,0.782,1.69,1.127,2.785,1.189v0.688h-8.012v-0.688c1.064-0.062,2.222-0.281,2.535-1.064V11.576
			c-0.219-0.532-1.314-0.846-2.41-0.877v-0.688h9.889c0.532,0,1.064-0.031,1.408-0.156h0.595V13.86z"/>
		<path style="fill:#82A1C3;" d="M225.915,19.243c-0.563,0-1.189-0.125-1.909-0.312v4.412c0.313,0.782,1.784,1.127,2.879,1.189
			v0.688h-8.199v-0.688c1.064-0.062,2.316-0.281,2.629-1.064V11.576c-0.219-0.563-1.408-0.846-2.504-0.908v-0.657
			c2.598,0,5.728-0.094,6.823-0.094c3.975,0,5.945,1.784,5.945,4.444C231.579,17.084,229.577,19.243,225.915,19.243z
			 M225.477,10.888c-0.344,0-0.97,0-1.471,0.062v7.26c0.47,0.095,0.908,0.095,1.346,0.095c2.128,0,3.38-1.659,3.38-4.037
			C228.731,12.452,227.542,10.888,225.477,10.888z"/>
		<path style="fill:#82A1C3;" d="M250.44,10.668c-1.064,0.062-2.066,0.563-2.285,1.064v7.542c0,4.413-2.754,6.322-6.51,6.322
			c-3.849,0-6.196-2.129-6.196-5.853v-8.231c-0.25-0.469-1.221-0.782-2.284-0.845v-0.657h7.323v0.657
			c-1.096,0.062-2.129,0.376-2.348,0.845v7.73c0,3.067,1.502,4.757,4.257,4.757c2.91,0,4.35-1.784,4.35-5.227v-3.035
			c0-1.314-0.094-3.286-0.125-4.006c-0.251-0.501-1.597-1.002-2.691-1.064v-0.657h6.51V10.668z"/>
		<path style="fill:#82A1C3;" d="M259.577,25.221h-7.479v-0.688c1.096-0.062,2.598-0.312,2.91-1.096V11.481
			c-0.188-0.469-1.283-0.751-2.378-0.813v-0.657c3.066-0.031,5.195-0.125,7.104-0.125c3.537,0,5.258,1.439,5.258,3.161
			c0,1.471-0.657,2.472-2.785,3.411c2.254,0.595,3.6,2.097,3.6,3.85C265.806,23.625,263.521,25.221,259.577,25.221z M258.857,10.824
			h-1.158v5.384c0.563-0.063,1.314-0.063,1.847-0.063s1.127,0.063,1.502,0.063c0.846-0.689,1.158-1.628,1.158-2.724
			C262.206,11.951,260.892,10.824,258.857,10.824z M258.826,17.115c-0.375,0-0.876,0-1.127,0.031v6.196
			c0.313,0.72,0.939,1.002,1.972,1.002c2.16,0,3.255-1.69,3.255-3.912C262.926,18.305,260.829,17.115,258.826,17.115z"/>
		<path style="fill:#82A1C3;" d="M280.606,25.221h-13.145v-0.688c0.971-0.062,2.441-0.312,2.754-1.096V11.481
			c-0.188-0.469-1.22-0.751-2.284-0.813v-0.657h7.479v0.657c-1.063,0.062-2.315,0.376-2.504,0.845v12.55l4.319-0.125
			c1.627-0.062,2.691-1.596,2.723-3.599h0.657V25.221z"/>
		<path style="fill:#82A1C3;" d="M290.4,25.221h-7.573v-0.688c1.127-0.062,2.253-0.376,2.441-0.845V11.513
			c-0.188-0.469-1.314-0.782-2.441-0.845v-0.657h7.573v0.657c-1.126,0.062-2.253,0.376-2.44,0.845v12.175
			c0.188,0.469,1.314,0.782,2.44,0.845V25.221z"/>
		<path style="fill:#82A1C3;" d="M306.472,20.776l-0.845,3.912c-1.815,0.563-2.41,0.845-5.258,0.845
			c-4.944,0-8.513-3.536-8.513-8.043c0-4.6,3.787-7.792,8.575-7.792c2.379,0,3.693,0.438,5.508,0.876v4.131h-0.656
			c-0.095-1.063-0.532-2.253-1.409-2.816c-0.438-0.312-1.533-1.189-3.661-1.189c-3.411,0-5.352,2.849-5.352,6.229
			c0,4.443,2.504,7.573,6.479,7.573c1.283,0,2.19-0.532,2.597-0.876c0.939-0.72,1.597-1.847,1.815-2.974L306.472,20.776z"/>
		<path style="fill:#82A1C3;" d="M333.702,25.221h-7.323v-0.688c1.096-0.031,2.065-0.345,2.316-0.813v-5.634h-8.138v5.634
			c0.188,0.469,1.221,0.782,2.285,0.813v0.688h-7.261v-0.688c1.064-0.031,2.097-0.345,2.284-0.813V11.481
			c-0.188-0.469-1.22-0.782-2.284-0.845v-0.626h7.261v0.626c-1.064,0.062-2.097,0.376-2.285,0.845v5.32h8.138v-5.32
			c-0.251-0.469-1.221-0.782-2.316-0.845v-0.626h7.323v0.626c-1.096,0.062-2.065,0.376-2.315,0.845v12.237
			c0.25,0.469,1.22,0.782,2.315,0.813V25.221z"/>
		<path style="fill:#82A1C3;" d="M349.124,25.221h-8.043l-5.414,0.062v-0.657c1.095-0.062,2.723-0.375,3.035-1.158V11.481
			c-0.188-0.469-1.22-0.751-2.315-0.813v-0.657h9.89c0.657,0,1.095-0.062,1.408-0.156h0.563v4.006h-0.626
			c-0.094-2.097-0.939-2.66-2.754-2.66h-3.475v5.664h3.255c1.628,0,2.285-0.031,2.504-1.783h0.595v4.944h-0.626
			c-0.188-1.909-0.72-1.94-2.473-1.94h-3.255v5.164c0.063,0.313,0.188,0.657,0.626,0.813L345.807,24
			c1.596-0.031,2.66-0.72,2.723-2.754h0.595V25.221z"/>
		<path style="fill:#82A1C3;" d="M367.991,25.221h-7.292v-0.688c1.096-0.062,2.003-0.312,2.254-0.813l-1.565-4.476h-4.882
			l-1.533,4.193c0.25,0.563,1.189,1.033,2.253,1.096v0.688h-6.228v-0.688c1.095-0.062,1.878-0.25,2.347-0.845
			c0.657-1.628,1.408-3.474,2.128-5.414c1.002-2.691,2.003-5.32,2.566-6.948c0.251-0.72,0.251-1.001,0.313-1.471h2.91
			c0.062,0.751,0.125,1.189,0.313,1.815c0.813,2.534,1.471,4.506,2.159,6.54c0.563,1.69,1.158,3.255,1.94,5.289
			c0.25,0.688,1.221,0.971,2.315,1.033V25.221z M360.981,18.054l-1.565-4.913l-0.312-1.158h-0.125l-0.345,1.158l-1.721,4.913
			H360.981z"/>
		<path style="fill:#82A1C3;" d="M382.568,25.221h-13.145v-0.688c0.971-0.062,2.441-0.312,2.754-1.096V11.481
			c-0.188-0.469-1.22-0.751-2.284-0.813v-0.657h7.479v0.657c-1.063,0.062-2.315,0.376-2.504,0.845v12.55l4.319-0.125
			c1.627-0.062,2.691-1.596,2.723-3.599h0.657V25.221z"/>
		<path style="fill:#82A1C3;" d="M398.083,14.361h-0.626c-0.062-2.034-1.157-3.099-2.879-3.13l-2.566-0.031v12.018
			c0.532,1.127,1.847,1.252,2.942,1.314v0.688h-8.638v-0.688c1.095-0.062,2.66-0.281,3.004-0.97V11.2l-2.566,0.031
			c-1.721,0.031-2.816,1.096-2.848,3.13h-0.657V9.823h0.595c0.312,0.094,0.626,0.188,1.408,0.188h10.828
			c0.563,0,1.096-0.094,1.408-0.188h0.595V14.361z"/>
		<path style="fill:#82A1C3;" d="M418.559,25.221h-7.323v-0.688c1.096-0.031,2.065-0.345,2.316-0.813v-5.634h-8.138v5.634
			c0.188,0.469,1.221,0.782,2.285,0.813v0.688h-7.261v-0.688c1.064-0.031,2.097-0.345,2.284-0.813V11.481
			c-0.188-0.469-1.22-0.782-2.284-0.845v-0.626h7.261v0.626c-1.064,0.062-2.097,0.376-2.285,0.845v5.32h8.138v-5.32
			c-0.251-0.469-1.221-0.782-2.316-0.845v-0.626h7.323v0.626c-1.096,0.062-2.065,0.376-2.315,0.845v12.237
			c0.25,0.469,1.22,0.782,2.315,0.813V25.221z"/>
		<path style="fill:#82A1C3;" d="M76.435,59.246l-8.359-0.025l0.101-0.581c1.061-0.05,2.197-0.379,2.525-0.884l2.778-13.106
			c-0.126-0.505-1.439-0.858-2.576-0.909l0.126-0.556c2.98-0.126,5-0.277,7.223-0.277c5.177,0,7.98,2.651,7.98,6.692
			C86.233,55.129,82.066,59.271,76.435,59.246z M77.015,43.74h-1.086l-2.955,13.89c0.228,0.354,2.172,0.783,3.208,0.783
			c5.076,0,7.475-3.764,7.475-8.385C83.657,45.962,81.232,43.74,77.015,43.74z"/>
		<path style="fill:#82A1C3;" d="M98.087,56.367c-1.465,1.768-2.803,3.056-4.117,3.056c-0.555,0-0.783-0.783-0.783-1.667l0.682-2.93
			c-2.071,2.525-4.142,4.597-5.505,4.597c-0.429,0-1.212-0.732-1.212-2.702c0-2.046,0.732-4.016,2.248-5.556
			c1.894-1.944,4.318-2.98,6.895-2.98h0.757l-1.768,8.309c-0.051,0.253-0.101,0.732-0.101,0.909c0,0.328,0,0.581,0.278,0.581
			c0.303,0,1.212-0.858,2.172-1.995L98.087,56.367z M94.829,49.876c-0.303-0.076-0.682-0.101-0.959-0.101
			c-1.01,0-2.122,0.201-2.5,0.505c-1.237,0.984-2.248,2.828-2.248,5.732c0,1.515,0.379,1.944,0.657,1.944
			c0.455,0,2.399-1.919,4.217-4.167L94.829,49.876z"/>
		<path style="fill:#82A1C3;" d="M105.8,48.462l-0.303,1.061h-2.651l-1.263,6.718c-0.051,0.252-0.101,0.833-0.101,1.01
			c0,0.479,0.151,0.808,0.429,0.808s1.49-0.984,2.475-2.272l0.455,0.379c-1.591,2.046-3.081,3.258-4.394,3.258
			c-0.555,0-0.909-0.783-0.909-1.667c0-0.454,0.126-1.263,0.278-1.995l1.187-6.263l-1.591,0.051l0.126-0.53
			c1.717-0.783,2.652-1.541,3.738-3.283h0.556l-0.783,2.728H105.8z"/>
		<path style="fill:#82A1C3;" d="M116.974,56.367c-1.465,1.768-2.803,3.056-4.117,3.056c-0.555,0-0.783-0.783-0.783-1.667
			l0.682-2.93c-2.071,2.525-4.142,4.597-5.505,4.597c-0.429,0-1.212-0.732-1.212-2.702c0-2.046,0.732-4.016,2.248-5.556
			c1.894-1.944,4.318-2.98,6.895-2.98h0.757l-1.768,8.309c-0.051,0.253-0.101,0.732-0.101,0.909c0,0.328,0,0.581,0.278,0.581
			c0.303,0,1.212-0.858,2.172-1.995L116.974,56.367z M113.716,49.876c-0.303-0.076-0.682-0.101-0.959-0.101
			c-1.01,0-2.122,0.201-2.5,0.505c-1.237,0.984-2.248,2.828-2.248,5.732c0,1.515,0.379,1.944,0.657,1.944
			c0.455,0,2.399-1.919,4.217-4.167L113.716,49.876z"/>
		<path style="fill:#82A1C3;" d="M135.708,47.881l-0.556-0.051c0.025-0.177,0.025-0.328,0.025-0.505c0-1.086-0.252-1.97-0.985-2.551
			c-0.404-0.328-1.212-1.01-2.728-1.01c-2.323,0-3.459,1.465-3.459,3.207c0,1.364,0.758,2.021,3.081,3.309
			c2.475,1.363,3.813,2.575,3.813,4.394c0,3.106-2.752,4.925-6.162,4.925c-2.248,0-3.939-0.809-4.975-1.389l0.252-4.016l0.556,0.051
			c0.025,1.111,0.48,2.5,1.364,3.207c0.657,0.53,1.692,1.288,3.056,1.288c2.273,0,3.636-1.465,3.636-3.283
			c0-1.516-1.035-2.298-2.878-3.232c-2.677-1.339-3.965-2.626-3.965-4.444c0-2.879,2.651-4.899,6.187-4.899
			c1.97,0,3.51,0.581,4.394,1.086L135.708,47.881z"/>
		<path style="fill:#82A1C3;" d="M143.848,50.836c-0.682-0.732-1.313-1.39-2.601-1.465c-0.808,0.479-2.172,2.728-2.172,5.354
			c0,2.576,0.808,3.46,1.793,3.46c0.757,0,1.869-0.834,3.056-2.121l0.404,0.403c-1.641,1.97-3.409,3.006-4.621,3.006
			c-1.591,0-2.652-1.642-2.652-3.915c0-1.944,0.859-3.788,2.071-5.202c1.212-1.414,2.652-2.172,3.965-2.172
			c1.364,0,2.045,0.758,2.045,1.288C145.136,49.902,144.328,50.609,143.848,50.836z"/>
		<path style="fill:#82A1C3;" d="M151.569,56.367c-1.465,1.768-2.803,3.056-4.116,3.056c-0.556,0-0.758-0.783-0.758-1.667
			c0-0.454,0.151-1.338,0.354-2.121l1.137-4.571c0.126-0.555,0.303-1.389,0.303-1.489c0-0.076,0.051-0.253-0.076-0.253
			c-0.328,0-1.061,0.732-2.071,2.146l-0.48-0.328c1.415-2.021,2.525-3.005,3.687-3.005c0.556,0,0.758,0.707,0.758,1.489
			c0,0.253,0,0.581-0.076,0.859l-1.465,5.858c-0.05,0.202-0.126,0.656-0.126,0.833c0,0.379,0.126,0.783,0.404,0.783
			c0.252,0,1.111-0.833,2.071-1.97L151.569,56.367z M150.382,44.725c-0.783,0-1.288-0.632-1.288-1.213
			c0-0.605,0.505-1.262,1.288-1.262c0.758,0,1.263,0.656,1.263,1.262C151.645,44.093,151.14,44.725,150.382,44.725z"/>
		<path style="fill:#82A1C3;" d="M154.912,54.22c-0.025,0.303-0.05,0.707-0.05,1.01c0,1.793,0.682,2.93,1.843,2.93
			c0.833,0,1.869-0.809,3.081-2.096l0.404,0.403c-1.641,1.97-3.409,3.006-4.672,3.006c-1.591,0-2.601-1.616-2.601-3.89
			c0-1.944,0.859-3.863,2.096-5.277c1.136-1.313,2.45-2.172,3.763-2.172c1.465,0,2.096,0.959,2.096,1.97
			C160.872,51.543,158.902,53.134,154.912,54.22z M157.235,49.144c-0.985,0.656-1.919,2.374-2.272,4.444
			c2.071-0.556,3.207-1.363,3.99-2.07c0.051-0.126,0.101-0.328,0.101-0.455C159.053,50.028,158.851,49.144,157.235,49.144z"/>
		<path style="fill:#82A1C3;" d="M173.86,56.367c-1.465,1.768-2.803,3.056-4.117,3.056c-0.555,0-0.707-0.809-0.707-1.692
			c0-0.454,0.202-1.212,0.379-1.995c0,0,1.086-4.268,1.263-5.303c0-0.656-0.05-0.809-0.429-0.809c-0.48,0-2.752,2.349-4.748,4.773
			l-0.935,4.823h-1.869l1.667-8.157c0.076-0.429,0.329-1.389,0.329-1.489c0-0.076-0.025-0.253-0.076-0.253
			c-0.329,0-1.061,0.732-2.071,2.146l-0.48-0.328c1.414-2.021,2.475-3.005,3.636-3.005c0.556,0,0.808,0.707,0.808,1.489
			c0,0.253-0.05,0.581-0.126,0.859l-0.657,2.803c2.222-2.702,4.546-5.151,5.909-5.151c0.43,0,1.036,0.959,1.036,1.717
			c0,0.455-0.101,1.035-0.354,1.944l-1.237,4.622c-0.076,0.277-0.152,0.833-0.152,1.01c0,0.404,0.025,0.606,0.329,0.606
			c0.277,0,1.187-0.909,2.146-2.046L173.86,56.367z"/>
		<path style="fill:#82A1C3;" d="M182.023,50.836c-0.682-0.732-1.313-1.39-2.601-1.465c-0.808,0.479-2.172,2.728-2.172,5.354
			c0,2.576,0.808,3.46,1.793,3.46c0.757,0,1.869-0.834,3.056-2.121l0.404,0.403c-1.641,1.97-3.409,3.006-4.621,3.006
			c-1.591,0-2.652-1.642-2.652-3.915c0-1.944,0.859-3.788,2.071-5.202c1.212-1.414,2.652-2.172,3.965-2.172
			c1.364,0,2.045,0.758,2.045,1.288C183.311,49.902,182.502,50.609,182.023,50.836z"/>
		<path style="fill:#82A1C3;" d="M186.024,54.22c-0.025,0.303-0.05,0.707-0.05,1.01c0,1.793,0.682,2.93,1.843,2.93
			c0.833,0,1.869-0.809,3.081-2.096l0.404,0.403c-1.641,1.97-3.409,3.006-4.672,3.006c-1.591,0-2.601-1.616-2.601-3.89
			c0-1.944,0.859-3.863,2.096-5.277c1.136-1.313,2.45-2.172,3.763-2.172c1.465,0,2.096,0.959,2.096,1.97
			C191.984,51.543,190.014,53.134,186.024,54.22z M188.347,49.144c-0.985,0.656-1.919,2.374-2.272,4.444
			c2.071-0.556,3.207-1.363,3.99-2.07c0.051-0.126,0.101-0.328,0.101-0.455C190.166,50.028,189.963,49.144,188.347,49.144z"/>
		<path style="fill:#82A1C3;" d="M209.154,56.367c-1.465,1.768-2.803,3.056-4.117,3.056c-0.555,0-0.783-0.783-0.783-1.667
			l0.682-2.93c-2.071,2.525-4.142,4.597-5.505,4.597c-0.429,0-1.212-0.732-1.212-2.702c0-2.046,0.732-4.016,2.248-5.556
			c1.894-1.944,4.318-2.98,6.895-2.98h0.757l-1.768,8.309c-0.051,0.253-0.101,0.732-0.101,0.909c0,0.328,0,0.581,0.278,0.581
			c0.303,0,1.212-0.858,2.172-1.995L209.154,56.367z M205.896,49.876c-0.303-0.076-0.682-0.101-0.959-0.101
			c-1.01,0-2.122,0.201-2.5,0.505c-1.237,0.984-2.248,2.828-2.248,5.732c0,1.515,0.379,1.944,0.657,1.944
			c0.455,0,2.399-1.919,4.217-4.167L205.896,49.876z"/>
		<path style="fill:#82A1C3;" d="M221.829,56.367c-1.465,1.768-2.803,3.056-4.116,3.056c-0.556,0-0.707-0.809-0.707-1.692
			c0-0.454,0.202-1.212,0.379-1.995c0,0,1.086-4.268,1.263-5.303c0-0.656-0.051-0.809-0.43-0.809c-0.479,0-2.753,2.349-4.747,4.773
			l-0.935,4.823h-1.869l1.667-8.157c0.076-0.429,0.328-1.389,0.328-1.489c0-0.076-0.025-0.253-0.075-0.253
			c-0.329,0-1.062,0.732-2.071,2.146l-0.479-0.328c1.414-2.021,2.475-3.005,3.636-3.005c0.556,0,0.809,0.707,0.809,1.489
			c0,0.253-0.051,0.581-0.126,0.859l-0.657,2.803c2.223-2.702,4.546-5.151,5.909-5.151c0.43,0,1.036,0.959,1.036,1.717
			c0,0.455-0.102,1.035-0.354,1.944l-1.237,4.622c-0.076,0.277-0.152,0.833-0.152,1.01c0,0.404,0.025,0.606,0.329,0.606
			c0.277,0,1.187-0.909,2.146-2.046L221.829,56.367z"/>
		<path style="fill:#82A1C3;" d="M234.365,41.341l-3.106,15.151c-0.05,0.303-0.101,0.682-0.101,0.884c0,0.304,0,0.682,0.277,0.682
			c0.202,0,1.213-0.934,2.172-2.07l0.455,0.379c-1.465,1.768-2.804,3.056-4.116,3.056c-0.556,0-0.758-0.783-0.758-1.667l0.631-2.803
			c-2.07,2.475-4.217,4.47-5.58,4.47c-0.43,0-1.213-0.732-1.213-2.702c0-2.046,0.732-4.318,2.248-5.858
			c1.616-1.642,3.788-2.501,5.935-2.904l0.656-3.485c0.076-0.429,0.151-0.758,0.151-1.01c0-0.505-0.252-0.682-0.96-0.682
			c-0.378,0-0.731,0.101-1.086,0.151l0.127-0.581l3.863-1.01H234.365z M230.88,49.674c-0.303-0.075-0.731-0.101-1.01-0.101
			c-1.01,0-2.272,0.227-2.626,0.505c-1.237,0.984-2.248,3.03-2.248,5.935c0,1.49,0.379,1.944,0.657,1.944
			c0.354,0,2.475-1.793,4.293-4.04L230.88,49.674z"/>
		<path style="fill:#82A1C3;" d="M247.873,59.246l-8.358-0.025l0.101-0.581c1.061-0.05,2.197-0.379,2.525-0.884l2.778-13.106
			c-0.126-0.505-1.439-0.858-2.576-0.909l0.127-0.556c2.979-0.126,5-0.277,7.222-0.277c5.177,0,7.98,2.651,7.98,6.692
			C257.672,55.129,253.505,59.271,247.873,59.246z M248.454,43.74h-1.086l-2.954,13.89c0.227,0.354,2.172,0.783,3.207,0.783
			c5.076,0,7.475-3.764,7.475-8.385C255.096,45.962,252.672,43.74,248.454,43.74z"/>
		<path style="fill:#82A1C3;" d="M269.525,56.367c-1.465,1.768-2.803,3.056-4.116,3.056c-0.556,0-0.782-0.783-0.782-1.667
			l0.682-2.93c-2.071,2.525-4.142,4.597-5.506,4.597c-0.429,0-1.212-0.732-1.212-2.702c0-2.046,0.732-4.016,2.248-5.556
			c1.894-1.944,4.318-2.98,6.894-2.98h0.758l-1.768,8.309c-0.051,0.253-0.102,0.732-0.102,0.909c0,0.328,0,0.581,0.278,0.581
			c0.303,0,1.212-0.858,2.172-1.995L269.525,56.367z M266.268,49.876c-0.303-0.076-0.682-0.101-0.959-0.101
			c-1.011,0-2.121,0.201-2.5,0.505c-1.237,0.984-2.248,2.828-2.248,5.732c0,1.515,0.379,1.944,0.657,1.944
			c0.454,0,2.398-1.919,4.217-4.167L266.268,49.876z"/>
		<path style="fill:#82A1C3;" d="M277.238,48.462l-0.303,1.061h-2.651l-1.263,6.718c-0.051,0.252-0.102,0.833-0.102,1.01
			c0,0.479,0.152,0.808,0.43,0.808s1.49-0.984,2.475-2.272l0.455,0.379c-1.591,2.046-3.081,3.258-4.395,3.258
			c-0.556,0-0.909-0.783-0.909-1.667c0-0.454,0.127-1.263,0.278-1.995l1.187-6.263l-1.591,0.051l0.126-0.53
			c1.718-0.783,2.651-1.541,3.737-3.283h0.556l-0.782,2.728H277.238z"/>
		<path style="fill:#82A1C3;" d="M288.412,56.367c-1.465,1.768-2.803,3.056-4.116,3.056c-0.556,0-0.782-0.783-0.782-1.667
			l0.682-2.93c-2.071,2.525-4.142,4.597-5.506,4.597c-0.429,0-1.212-0.732-1.212-2.702c0-2.046,0.732-4.016,2.248-5.556
			c1.894-1.944,4.318-2.98,6.894-2.98h0.758l-1.768,8.309c-0.051,0.253-0.102,0.732-0.102,0.909c0,0.328,0,0.581,0.278,0.581
			c0.303,0,1.212-0.858,2.172-1.995L288.412,56.367z M285.154,49.876c-0.303-0.076-0.682-0.101-0.959-0.101
			c-1.011,0-2.121,0.201-2.5,0.505c-1.237,0.984-2.248,2.828-2.248,5.732c0,1.515,0.379,1.944,0.657,1.944
			c0.454,0,2.398-1.919,4.217-4.167L285.154,49.876z"/>
		<path style="fill:#82A1C3;" d="M308.915,43.033l-0.858,4.016h-0.531c0.051-0.354,0.076-0.657,0.076-0.935
			c0-1.439-0.858-1.818-2.449-1.818h-3.637l-1.313,6.188h3.409c1.692,0,2.45-0.025,3.081-1.869h0.479l-1.035,5.076h-0.53
			c0.025-0.253,0.051-0.556,0.051-0.682c0-1.364-0.682-1.339-2.298-1.339h-3.409l-1.188,5.581c0,0.328,0.076,0.732,0.505,0.909
			l4.016-0.076c1.742-0.025,3.03-0.732,3.535-2.879h0.506l-0.859,4.016h-8.435l-4.898,0.076l0.126-0.581
			c1.161-0.051,2.677-0.404,3.207-1.237l2.728-12.829c-0.126-0.505-1.237-0.833-2.374-0.884l0.102-0.556h9.949
			c0.732,0,1.212-0.075,1.565-0.177H308.915z"/>
		<path style="fill:#82A1C3;" d="M319.224,48.184l-3.03,15.026c-0.102,0.505-0.127,0.884-0.127,1.061
			c0,0.556,0.985,0.858,1.818,0.858h0.127v0.581h-6.339v-0.53c1.742-0.202,2.399-0.48,2.677-1.92l1.591-8.08
			c-2.07,2.524-4.065,4.242-5.43,4.242c-0.429,0-1.212-0.732-1.212-2.702c0-2.046,0.682-4.116,2.172-5.657
			c2.071-2.121,4.444-2.879,7.021-2.879H319.224z M317.026,49.826c-0.303-0.05-0.732-0.075-1.01-0.075
			c-1.011,0-2.097,0.151-2.576,0.53c-1.237,0.984-2.172,2.828-2.172,5.732c0,1.54,0.404,1.894,0.682,1.894
			c0.43,0,2.399-1.565,4.218-3.863L317.026,49.826z"/>
		<path style="fill:#82A1C3;" d="M332.443,56.367c-1.465,1.768-2.804,3.056-4.116,3.056c-0.556,0-0.758-0.783-0.758-1.667
			c0-0.631,0.808-3.611,0.808-3.611c-2.222,2.854-4.57,5.278-5.935,5.278c-0.429,0-1.086-0.96-1.086-1.718
			c0-0.454,0.152-1.035,0.379-1.944l1.213-4.621c0.126-0.454,0.354-1.389,0.354-1.49c0-0.101,0.05-0.328-0.076-0.328
			c-0.328,0-1.061,0.732-2.07,2.146l-0.48-0.328c1.414-2.021,2.5-3.005,3.662-3.005c0.556,0,0.782,0.707,0.782,1.515
			c0,0.253-0.05,0.505-0.101,0.758c-0.682,2.677-1.439,5.556-1.616,6.591c0,0.683,0.151,0.96,0.43,0.96
			c0.53,0,2.677-2.272,4.672-4.823l1.01-4.748h1.894l-1.768,8.106c-0.075,0.303-0.126,0.707-0.126,0.884
			c0,0.379,0.051,0.657,0.328,0.657c0.278,0,1.188-0.909,2.146-2.046L332.443,56.367z"/>
		<path style="fill:#82A1C3;" d="M339.107,56.367c-1.464,1.768-2.803,3.056-4.116,3.056c-0.556,0-0.757-0.783-0.757-1.667
			c0-0.454,0.151-1.338,0.354-2.121l1.136-4.571c0.127-0.555,0.304-1.389,0.304-1.489c0-0.076,0.05-0.253-0.076-0.253
			c-0.328,0-1.061,0.732-2.07,2.146l-0.48-0.328c1.414-2.021,2.525-3.005,3.688-3.005c0.556,0,0.757,0.707,0.757,1.489
			c0,0.253,0,0.581-0.075,0.859l-1.465,5.858c-0.051,0.202-0.126,0.656-0.126,0.833c0,0.379,0.126,0.783,0.403,0.783
			c0.253,0,1.111-0.833,2.071-1.97L339.107,56.367z M337.921,44.725c-0.783,0-1.288-0.632-1.288-1.213
			c0-0.605,0.505-1.262,1.288-1.262c0.758,0,1.263,0.656,1.263,1.262C339.184,44.093,338.679,44.725,337.921,44.725z"/>
		<path style="fill:#82A1C3;" d="M347.008,48.462l-0.303,1.061h-2.651l-1.263,6.718c-0.051,0.252-0.102,0.833-0.102,1.01
			c0,0.479,0.152,0.808,0.43,0.808s1.49-0.984,2.475-2.272l0.455,0.379c-1.591,2.046-3.081,3.258-4.395,3.258
			c-0.556,0-0.909-0.783-0.909-1.667c0-0.454,0.127-1.263,0.278-1.995l1.187-6.263l-1.591,0.051l0.126-0.53
			c1.718-0.783,2.651-1.541,3.737-3.283h0.556l-0.782,2.728H347.008z"/>
		<path style="fill:#82A1C3;" d="M356.57,51.341c-0.606,1.54-1.869,4.521-3.081,6.919c-2.021,3.965-4.571,7.45-7.399,7.45
			c-0.682,0-1.061-0.505-1.061-1.137c0.102-0.556,0.404-1.01,1.01-1.288c0.859,0.455,1.415,0.581,2.223,0.581
			c0.632-0.228,2.248-1.187,3.611-4.369c0-3.838-0.43-6.565-1.616-9.293c-0.151-0.354-0.379-0.707-0.935-0.707
			c-0.303,0-1.288,0.354-1.288,2.096v0.278h-0.556c-0.024-0.177-0.024-0.379-0.024-0.581c0-2.272,1.565-3.156,2.55-3.156
			c0.985,0,1.49,0.454,1.743,0.909c1.212,2.146,1.717,5.479,1.691,8.131c1.465-3.282,1.895-5.252,2.021-7.752
			c0.051-1.086,0.505-1.263,0.935-1.263c0.656,0,0.909,0.303,0.909,0.808C357.303,49.548,356.949,50.381,356.57,51.341z"/>
	</g>
</g>
</svg>
