<?xml version="1.0" encoding="UTF-8"?>
<svg id="Layer_1" data-name="Layer 1" xmlns="http://www.w3.org/2000/svg" viewBox="0 0 360 360">
  <g>
    <path class="cls-1" d="M151.3,90.8c6.4,16.7,10.8,33.6,21.7,48.1,16.8,22.3,39.8,30.9,65.5,39.3,1.2.9,1.2,3.1,0,4-16.7,6.2-33.4,10.6-47.8,21.6-24.5,18.6-27.5,36.4-38.2,62.9-.8,2.1-1.4,4.5-4.4,2.7s-9-24.2-10.6-28c-9.8-23-26.8-39.7-49.7-49.5s-18.5-6.1-27.3-10.1l-.6-2,1.8-2.1c24.7-7.8,46.8-16.4,63.3-37.2,11.6-14.6,16.2-31.7,22.6-48.9.7-1.3,2.4-1.3,3.7-.9v.1Z"/>
    <path class="cls-1" d="M255.1,36c4.7,15.6,11,29.4,26,37.4s11.6,4.1,17.2,6.7,1.9,1.9-.3,2.9c-3.4,1.6-8.3,2.6-11.9,4.2-12.4,5.3-20.7,13.7-26.1,26.1-1.1,2.5-3.6,11.7-4.5,12.9s-1,.8-1.9.7-5.2-14.1-6.2-16.3c-4.3-8.9-12.9-17.7-21.8-22s-14.1-4.3-16.3-6.1-.6-1.1-.4-1.7,12.2-4.3,14.2-5.2c17.9-7.8,25.2-21.5,30.3-39.6h1.8-.1Z"/>
    <path class="cls-1" d="M255.1,233.8c5.6,18.2,12.9,31.7,31,39.5s11.5,3.4,12.9,4.5.8,1,.7,1.9-15.3,5.6-18.1,7.1c-15.1,7.9-21.7,21.6-26.3,37.3-.1.6-1.3.5-1.7.4-1-.3-6-16.2-7.7-19.3-8-14.5-21.4-20.6-36.7-25.1-.6-.1-.5-1.3-.4-1.7.3-.9,14.8-5.5,17.2-6.7,15.4-7.6,22.9-22.2,27.3-38.1h1.8v.2Z"/>
  </g>
  <path class="cls-1" d="M325.5,9.9c13.5,0,24.6,11,24.6,24.6v290.9c0,13.5-11,24.6-24.6,24.6H34.6c-13.5,0-24.6-11-24.6-24.6V34.5c0-13.5,11-24.6,24.6-24.6h290.9M325.5-.1H34.6C15.5-.1,0,15.4,0,34.5v290.9c0,19.1,15.5,34.6,34.6,34.6h290.9c19.1,0,34.6-15.5,34.6-34.6V34.5C360.1,15.4,344.6-.1,325.5-.1h0Z"/>
</svg>