<svg version="1.0" preserveAspectRatio="xMidYMid meet" viewBox="275.3655793025872 0 826.0967379077615 809.999993" zoomAndPan="magnify" xmlns:xlink="http://www.w3.org/1999/xlink" xmlns="http://www.w3.org/2000/svg" style="max-height: 500px" width="826.0967379077615" height="809.999993"><defs><clipPath id="2e899d801d"><path clip-rule="nonzero" d="M 281.757812 0.00390625 L 1091.757812 0.00390625 L 1091.757812 810 L 281.757812 810 Z M 281.757812 0.00390625"/></clipPath><clipPath id="2b183da06b"><path clip-rule="nonzero" d="M 356.753906 0.00390625 L 1016.851562 0.00390625 C 1036.742188 0.00390625 1055.816406 7.90625 1069.882812 21.972656 C 1083.949219 36.035156 1091.851562 55.113281 1091.851562 75.003906 L 1091.851562 734.996094 C 1091.851562 754.886719 1083.949219 773.964844 1069.882812 788.027344 C 1055.816406 802.09375 1036.742188 809.996094 1016.851562 809.996094 L 356.753906 809.996094 C 336.863281 809.996094 317.789062 802.09375 303.722656 788.027344 C 289.65625 773.964844 281.757812 754.886719 281.757812 734.996094 L 281.757812 75.003906 C 281.757812 55.113281 289.65625 36.035156 303.722656 21.972656 C 317.789062 7.90625 336.863281 0.00390625 356.753906 0.00390625 Z M 356.753906 0.00390625"/></clipPath><clipPath id="740b61cfec"><path clip-rule="nonzero" d="M 544 14.257812 L 848 14.257812 L 848 152 L 544 152 Z M 544 14.257812"/></clipPath><clipPath id="c68707ddd5"><path clip-rule="nonzero" d="M 445 645 L 596 645 L 596 795.757812 L 445 795.757812 Z M 445 645"/></clipPath></defs><g clip-path="url(#2e899d801d)"><g clip-path="url(#2b183da06b)"><path stroke-miterlimit="4" stroke-opacity="1" stroke-width="56" stroke="#000b8d" d="M 99.996889 -0.00047369 L 980.127142 -0.00047369 C 1006.647976 -0.00047369 1032.080269 10.535985 1050.835479 29.291194 C 1069.590688 48.041195 1080.127147 73.478697 1080.127147 99.999531 L 1080.127147 979.989159 C 1080.127147 1006.509994 1069.590688 1031.947495 1050.835479 1050.697496 C 1032.080269 1069.452705 1006.647976 1079.989164 980.127142 1079.989164 L 99.996889 1079.989164 C 73.476054 1079.989164 48.043761 1069.452705 29.288552 1050.697496 C 10.533343 1031.947495 0.00209234 1006.509994 0.00209234 979.989159 L 0.00209234 99.999531 C 0.00209234 73.478697 10.533343 48.041195 29.288552 29.291194 C 48.043761 10.535985 73.476054 -0.00047369 99.996889 -0.00047369 Z M 99.996889 -0.00047369" stroke-linejoin="miter" fill="none" transform="matrix(0.75, 0, 0, 0.75, 281.756243, 0.00426152)" stroke-linecap="butt"/></g></g><path fill-rule="evenodd" fill-opacity="1" d="M 549.921875 579.652344 L 413.953125 579.652344 C 409.832031 579.652344 406.167969 576.445312 406.167969 571.867188 L 406.167969 214.777344 C 406.167969 210.65625 409.832031 206.996094 413.953125 206.996094 L 535.269531 206.996094 C 539.390625 206.996094 543.054688 210.65625 543.054688 214.777344 C 543.054688 218.898438 539.390625 222.5625 535.269531 222.5625 L 421.734375 222.5625 L 421.734375 564.542969 L 549.921875 564.542969 C 554.039062 564.542969 557.246094 567.746094 557.246094 571.867188 C 557.246094 576.445312 554.039062 579.652344 549.921875 579.652344 Z M 684.058594 548.0625 C 683.140625 548.0625 682.226562 547.605469 681.3125 547.605469 C 677.648438 546.230469 675.359375 541.652344 676.734375 537.53125 C 678.5625 533.410156 679.480469 528.832031 679.480469 524.257812 L 679.480469 262.847656 C 679.480469 240.414062 661.167969 222.5625 639.191406 222.5625 L 571.894531 222.5625 C 567.316406 222.5625 564.113281 218.898438 564.113281 214.777344 C 564.113281 210.65625 567.773438 206.996094 571.894531 206.996094 L 639.191406 206.996094 C 669.867188 206.996094 694.585938 232.175781 694.585938 262.847656 L 694.585938 524.257812 C 694.585938 530.664062 693.671875 537.074219 691.382812 543.027344 C 690.007812 546.230469 687.261719 548.0625 684.058594 548.0625 Z M 684.058594 548.0625" fill="#000b8d"/><path fill-rule="evenodd" fill-opacity="1" d="M 960.117188 579.652344 L 734.875 579.652344 C 720.222656 579.652344 706.488281 574.15625 695.960938 564.542969 C 693.671875 562.253906 693.214844 559.050781 693.671875 556.761719 C 690.925781 556.761719 688.179688 555.386719 686.804688 552.640625 C 681.769531 544.855469 679.480469 535.242188 679.480469 525.628906 C 679.480469 521.507812 682.683594 517.847656 686.804688 517.847656 C 691.382812 517.847656 694.585938 521.507812 694.585938 525.628906 C 694.585938 532.496094 696.417969 539.363281 699.625 544.855469 C 700.996094 547.144531 700.996094 549.433594 700.539062 551.265625 C 702.828125 550.808594 704.660156 551.722656 706.488281 553.097656 C 713.816406 560.421875 723.886719 564.542969 734.875 564.542969 L 952.332031 564.542969 L 952.332031 222.5625 L 734.875 222.5625 C 712.898438 222.5625 694.585938 241.332031 694.585938 264.222656 C 694.585938 268.339844 691.382812 272.003906 686.804688 272.003906 C 682.683594 272.003906 679.480469 268.339844 679.480469 264.222656 C 679.480469 233.089844 704.660156 206.996094 734.875 206.996094 L 960.117188 206.996094 C 964.234375 206.996094 967.441406 210.65625 967.441406 214.777344 L 967.441406 571.867188 C 967.441406 576.445312 964.234375 579.652344 960.117188 579.652344 Z M 960.117188 579.652344" fill="#000b8d"/><path fill-rule="evenodd" fill-opacity="1" d="M 582.882812 272.003906 L 456.527344 272.003906 C 452.40625 272.003906 448.746094 268.800781 448.746094 264.679688 C 448.746094 260.101562 452.40625 256.898438 456.527344 256.898438 L 582.882812 256.898438 C 587.003906 256.898438 590.207031 260.101562 590.207031 264.679688 C 590.207031 268.800781 587.003906 272.003906 582.882812 272.003906 Z M 582.882812 272.003906" fill="#000b8d"/><path fill-rule="evenodd" fill-opacity="1" d="M 630.496094 323.738281 L 456.527344 323.738281 C 452.40625 323.738281 448.746094 320.074219 448.746094 315.953125 C 448.746094 311.832031 452.40625 308.628906 456.527344 308.628906 L 630.496094 308.628906 C 635.074219 308.628906 638.277344 311.832031 638.277344 315.953125 C 638.277344 320.074219 635.074219 323.738281 630.496094 323.738281 Z M 630.496094 323.738281" fill="#000b8d"/><path fill-rule="evenodd" fill-opacity="1" d="M 565.484375 375.46875 L 456.527344 375.46875 C 452.40625 375.46875 448.746094 371.804688 448.746094 367.6875 C 448.746094 363.566406 452.40625 359.902344 456.527344 359.902344 L 565.484375 359.902344 C 569.605469 359.902344 572.8125 363.566406 572.8125 367.6875 C 572.8125 371.804688 569.605469 375.46875 565.484375 375.46875 Z M 565.484375 375.46875" fill="#000b8d"/><path fill-rule="evenodd" fill-opacity="1" d="M 602.566406 426.742188 L 456.527344 426.742188 C 452.40625 426.742188 448.746094 423.539062 448.746094 419.417969 C 448.746094 414.839844 452.40625 411.636719 456.527344 411.636719 L 602.566406 411.636719 C 606.6875 411.636719 609.894531 414.839844 609.894531 419.417969 C 609.894531 423.539062 606.6875 426.742188 602.566406 426.742188 Z M 602.566406 426.742188" fill="#000b8d"/><path fill-rule="evenodd" fill-opacity="1" d="M 644.6875 478.476562 L 456.527344 478.476562 C 452.40625 478.476562 448.746094 474.8125 448.746094 470.691406 C 448.746094 466.570312 452.40625 462.910156 456.527344 462.910156 L 644.6875 462.910156 C 648.804688 462.910156 652.011719 466.570312 652.011719 470.691406 C 652.011719 474.8125 648.804688 478.476562 644.6875 478.476562 Z M 644.6875 478.476562" fill="#000b8d"/><path fill-rule="evenodd" fill-opacity="1" d="M 525.199219 529.75 L 456.527344 529.75 C 452.40625 529.75 448.746094 526.542969 448.746094 522.425781 C 448.746094 518.304688 452.40625 514.640625 456.527344 514.640625 L 525.199219 514.640625 C 529.777344 514.640625 532.980469 518.304688 532.980469 522.425781 C 532.980469 526.542969 529.777344 529.75 525.199219 529.75 Z M 525.199219 529.75" fill="#000b8d"/><path fill-rule="evenodd" fill-opacity="1" d="M 917.539062 272.003906 L 791.183594 272.003906 C 787.0625 272.003906 783.402344 268.800781 783.402344 264.679688 C 783.402344 260.101562 787.0625 256.898438 791.183594 256.898438 L 917.539062 256.898438 C 921.660156 256.898438 925.320312 260.101562 925.320312 264.679688 C 925.320312 268.800781 921.660156 272.003906 917.539062 272.003906 Z M 917.539062 272.003906" fill="#000b8d"/><path fill-rule="evenodd" fill-opacity="1" d="M 917.539062 323.738281 L 743.113281 323.738281 C 738.996094 323.738281 735.789062 320.074219 735.789062 315.953125 C 735.789062 311.832031 738.996094 308.628906 743.113281 308.628906 L 917.539062 308.628906 C 921.660156 308.628906 925.320312 311.832031 925.320312 315.953125 C 925.320312 320.074219 921.660156 323.738281 917.539062 323.738281 Z M 917.539062 323.738281" fill="#000b8d"/><path fill-rule="evenodd" fill-opacity="1" d="M 917.539062 375.46875 L 808.582031 375.46875 C 804.460938 375.46875 800.796875 371.804688 800.796875 367.6875 C 800.796875 363.566406 804.460938 359.902344 808.582031 359.902344 L 917.539062 359.902344 C 921.660156 359.902344 925.320312 363.566406 925.320312 367.6875 C 925.320312 371.804688 921.660156 375.46875 917.539062 375.46875 Z M 917.539062 375.46875" fill="#000b8d"/><path fill-rule="evenodd" fill-opacity="1" d="M 917.539062 426.742188 L 771.5 426.742188 C 767.378906 426.742188 763.714844 423.539062 763.714844 419.417969 C 763.714844 414.839844 767.378906 411.636719 771.5 411.636719 L 917.539062 411.636719 C 921.660156 411.636719 925.320312 414.839844 925.320312 419.417969 C 925.320312 423.539062 921.660156 426.742188 917.539062 426.742188 Z M 917.539062 426.742188" fill="#000b8d"/><path fill-rule="evenodd" fill-opacity="1" d="M 917.539062 478.476562 L 729.378906 478.476562 C 725.261719 478.476562 721.597656 474.8125 721.597656 470.691406 C 721.597656 466.570312 725.261719 462.910156 729.378906 462.910156 L 917.539062 462.910156 C 921.660156 462.910156 925.320312 466.570312 925.320312 470.691406 C 925.320312 474.8125 921.660156 478.476562 917.539062 478.476562 Z M 917.539062 478.476562" fill="#000b8d"/><path fill-rule="evenodd" fill-opacity="1" d="M 917.539062 529.75 L 848.410156 529.75 C 844.289062 529.75 841.085938 526.542969 841.085938 522.425781 C 841.085938 518.304688 844.289062 514.640625 848.410156 514.640625 L 917.539062 514.640625 C 921.660156 514.640625 925.320312 518.304688 925.320312 522.425781 C 925.320312 526.542969 921.660156 529.75 917.539062 529.75 Z M 917.539062 529.75" fill="#000b8d"/><g clip-path="url(#740b61cfec)"><path fill-rule="evenodd" fill-opacity="1" d="M 692.757812 151.144531 C 689.550781 151.144531 686.347656 149.3125 682.683594 147.023438 C 680.851562 146.105469 679.023438 144.734375 677.191406 143.816406 C 650.179688 131.457031 620.878906 120.011719 592.039062 108.566406 C 577.847656 103.074219 563.65625 97.121094 549.921875 91.628906 C 546.714844 90.253906 544.425781 87.050781 544.425781 83.386719 C 544.425781 76.0625 544.425781 70.570312 679.9375 19.292969 C 685.429688 17.464844 689.09375 16.089844 691.382812 15.175781 C 692.757812 14.714844 694.128906 14.257812 696.417969 14.257812 C 711.066406 14.257812 757.308594 34.859375 811.328125 59.125 C 820.027344 63.246094 827.351562 66.449219 833.304688 69.195312 C 836.507812 70.570312 839.253906 71.941406 841.085938 72.402344 C 844.289062 73.773438 846.578125 76.519531 847.035156 79.726562 C 847.496094 85.21875 842.457031 88.882812 840.167969 90.253906 C 822.773438 102.15625 748.152344 131 711.984375 144.734375 C 704.660156 147.480469 698.707031 149.769531 696.417969 150.683594 C 695.503906 151.144531 694.128906 151.144531 692.757812 151.144531 Z M 566.859375 82.015625 C 576.929688 86.132812 587.460938 90.253906 597.988281 94.375 C 626.375 105.820312 656.132812 117.722656 683.601562 130.085938 C 685.890625 131.457031 688.636719 132.832031 690.46875 134.203125 C 691.382812 134.664062 692.296875 135.121094 693.214844 135.578125 C 695.960938 134.203125 700.996094 132.375 706.488281 130.085938 C 735.789062 119.097656 799.425781 94.832031 824.148438 82.015625 C 819.109375 79.726562 812.242188 76.519531 804.917969 73.316406 C 771.5 57.75 709.238281 29.824219 696.417969 29.367188 C 694.128906 30.28125 690.46875 31.65625 685.429688 33.488281 C 613.554688 60.957031 580.59375 74.6875 566.859375 82.015625 Z M 566.859375 82.015625" fill="#000b8d"/></g><path fill-rule="evenodd" fill-opacity="1" d="M 692.757812 214.320312 C 691.382812 214.320312 690.46875 213.863281 689.09375 213.40625 L 614.929688 174.949219 C 612.640625 173.574219 610.808594 171.285156 610.808594 168.539062 L 610.351562 110.855469 C 610.351562 106.277344 613.554688 103.074219 617.675781 103.074219 C 617.675781 103.074219 618.132812 103.074219 618.132812 103.074219 C 622.253906 103.074219 625.457031 106.277344 625.457031 110.398438 L 625.917969 163.503906 L 693.214844 198.296875 L 771.039062 164.878906 L 768.292969 111.773438 C 767.835938 107.652344 771.039062 103.988281 775.160156 103.988281 C 779.28125 103.53125 782.945312 106.734375 783.402344 111.3125 L 786.148438 169.457031 C 786.605469 172.660156 784.773438 175.40625 781.570312 176.78125 L 695.503906 213.863281 C 694.585938 214.320312 693.671875 214.320312 692.757812 214.320312 Z M 692.757812 214.320312" fill="#000b8d"/><path fill-rule="evenodd" fill-opacity="1" d="M 553.125 173.117188 C 548.546875 173.117188 545.34375 169.914062 545.34375 165.792969 L 545.34375 84.304688 C 545.34375 80.640625 548.546875 76.976562 552.210938 76.976562 L 663.457031 67.824219 C 667.578125 67.824219 671.238281 70.570312 671.695312 74.6875 C 671.695312 79.265625 668.949219 82.929688 664.371094 82.929688 L 560.449219 91.628906 L 560.449219 165.792969 C 560.449219 169.914062 557.246094 173.117188 553.125 173.117188 Z M 553.125 173.117188" fill="#000b8d"/><path fill-rule="evenodd" fill-opacity="1" d="M 553.125 192.804688 C 543.054688 192.804688 535.269531 185.019531 535.269531 175.40625 C 535.269531 165.792969 543.054688 158.011719 553.125 158.011719 C 562.738281 158.011719 570.523438 165.792969 570.523438 175.40625 C 570.523438 185.019531 562.738281 192.804688 553.125 192.804688 Z M 553.125 173.117188 C 551.75 173.117188 550.835938 174.035156 550.835938 175.40625 C 550.835938 176.78125 551.75 177.695312 553.125 177.695312 C 554.039062 177.695312 555.414062 176.78125 555.414062 175.40625 C 555.414062 174.035156 554.039062 173.117188 553.125 173.117188 Z M 553.125 173.117188" fill="#000b8d"/><path fill-rule="evenodd" fill-opacity="1" d="M 570.0625 226.679688 L 537.101562 226.679688 C 533.898438 226.679688 530.691406 224.851562 528.859375 222.5625 C 527.03125 220.273438 526.570312 217.066406 527.488281 214.320312 L 537.558594 179.070312 C 538.933594 174.949219 543.054688 172.660156 547.171875 174.035156 C 551.292969 175.40625 553.582031 179.527344 552.210938 183.648438 L 544.425781 211.117188 L 562.738281 211.117188 L 553.582031 183.648438 C 552.210938 179.527344 554.5 175.40625 558.617188 174.035156 C 562.738281 172.660156 566.859375 174.949219 568.234375 179.070312 L 579.675781 213.863281 C 580.59375 217.066406 580.136719 219.8125 578.304688 222.101562 C 576.472656 224.851562 573.269531 226.679688 570.0625 226.679688 Z M 570.0625 226.679688" fill="#000b8d"/><path fill-rule="evenodd" fill-opacity="1" d="M 629.121094 702.800781 C 576.929688 702.800781 534.355469 660.222656 534.355469 608.035156 C 534.355469 555.84375 576.929688 513.269531 629.121094 513.269531 C 681.3125 513.269531 723.886719 555.84375 723.886719 608.035156 C 723.886719 660.222656 681.3125 702.800781 629.121094 702.800781 Z M 629.121094 528.375 C 585.171875 528.375 549.921875 564.085938 549.921875 608.035156 C 549.921875 651.984375 585.171875 687.234375 629.121094 687.234375 C 673.070312 687.234375 708.777344 651.984375 708.777344 608.035156 C 708.777344 564.085938 673.070312 528.375 629.121094 528.375 Z M 629.121094 528.375" fill="#000b8d"/><path fill-rule="evenodd" fill-opacity="1" d="M 629.121094 662.972656 C 598.90625 662.972656 574.183594 638.25 574.183594 608.035156 C 574.183594 577.820312 598.90625 553.097656 629.121094 553.097656 C 659.792969 553.097656 684.058594 577.820312 684.058594 608.035156 C 684.058594 638.25 659.792969 662.972656 629.121094 662.972656 Z M 629.121094 568.207031 C 607.144531 568.207031 589.292969 586.058594 589.292969 608.035156 C 589.292969 630.007812 607.144531 647.863281 629.121094 647.863281 C 651.09375 647.863281 668.949219 630.007812 668.949219 608.035156 C 668.949219 586.058594 651.09375 568.207031 629.121094 568.207031 Z M 629.121094 568.207031" fill="#000b8d"/><g clip-path="url(#c68707ddd5)"><path fill-rule="evenodd" fill-opacity="1" d="M 475.296875 795.734375 C 467.515625 795.734375 459.730469 792.53125 453.78125 786.578125 C 448.285156 781.085938 445.082031 773.304688 445.082031 765.0625 C 445.082031 756.820312 448.285156 749.039062 453.78125 743.546875 L 549.460938 647.863281 C 552.210938 645.117188 557.246094 645.117188 559.992188 647.863281 C 563.195312 651.070312 563.195312 655.644531 559.992188 658.851562 L 464.769531 754.074219 C 462.019531 757.28125 460.191406 760.941406 460.191406 765.0625 C 460.191406 769.183594 462.019531 772.84375 464.769531 776.050781 C 470.71875 782 480.332031 782 486.285156 776.050781 L 582.882812 679.453125 C 585.628906 676.246094 590.664062 676.246094 593.410156 679.453125 C 596.617188 682.199219 596.617188 687.234375 593.410156 689.980469 L 497.273438 786.578125 C 491.320312 792.53125 483.082031 795.734375 475.296875 795.734375 Z M 475.296875 795.734375" fill="#000b8d"/></g></svg>