<?xml version="1.0" encoding="UTF-8"?>
<svg id="Layer_1" data-name="Layer 1" xmlns="http://www.w3.org/2000/svg" viewBox="0 0 360 360">
  <g>
    <path class="cls-1" d="M288.8,179.5l14.9,6.5c5.6-14.7,27.3-11,26.8,5s-3.6,20.8-5,23.8c-5.8,12.2-23.5,8.7-26-4.2l-17.1,1.4-7.7,17.1,6.4,7.8c6.4-2,13.3-1.6,18.3,3.5,7.6,7.8,4,18.1-2.7,25.1-10.8,11.2-27,3.8-27.5-11.1l-10.1-4.2c-6.7,6.6-13.8,13-22.1,17.7l2.2,17c14.6-3.7,23.7,15.5,11.1,24.4s-18.7,8.3-21.7,8.9c-11.9,2.2-21.3-8.8-15.5-19.6s2.7-2.3,2.5-4l-9.5-13.6c-14.8,3-30.1,3.8-45,1-.9.2-10.1,14.7-10.3,15.6-.2,1.6,2,2.9,3,4.5,5.9,9.6,1.5,27-12.6,25s-17.8-5.8-21.3-7.6c-15-7.7-9.3-29.6,7.4-29.7l2.2-19c-10.3-4.9-18.8-12.7-27.3-20.1l-14.4,5.6-.6,1.2c.8,12.4-12.8,20.1-23,12.4s-9.4-11.5-10.4-14.9c-4-13.1,9.2-22.5,21-16.9l10.3-11.5c-.8-3.8-4.4-6.8-3.8-10.8s6-4.4,8.1-1.1,4.9,9.9,5.1,10.8.3,1.2.3,2c-.4,4.2-14.5,17.2-17.7,21.2-4.5,1.9-5-2.1-7.6-3-4.7-1.5-8.7,1.9-7.3,6.7,1.4,4.8,7.5,12.4,11.5,11.8,8.7-1.5.7-10.4,5.2-13.7,6.4-1.7,20.1-10.3,26.2-9.1s5.7,5.3,7.4,6.8c7.7,6.8,15.7,12.1,24.5,17.3,1.7,1.6,1.6,4.1,1.5,6.2-.2,6.2-1.4,16.2-2.4,22.3-1.9,11.3-9.7.7-14.7,7.7s-1.5,7.1,1.8,9.4,17.2,7,19.3,7.3c4.5.6,4.6-2.9,4.8-6.7.5-9.4-7.6-5-7.5-12.8,3.4-4.3,13.1-23.7,17.1-25.3s12.3,1,16.6,1.3,10,.3,14.1,0,18.1-3.9,22.1-2.7,1.5.9,2,1.5l14.7,20.6c2.3,6.3-6.2,5.7-6.2,10.9s3.5,4.9,6.7,4.3,16.7-6.5,18.3-7.6c2.4-1.8,3-4.3,1-6.7-4.6-5.6-10.3,4.3-14.3-2.2l-4.6-26c0-5,9.1-8.9,12.9-11.8s4.9-3.9,7.1-5.8,7-8.1,9.8-8.5c4.8-.7,15.1,6,20,7.6,2.9,2.8.3,5.8,1.4,9.2,1.1,3.4,6.9,5.8,10.6,2.9s4.7-5.7,5.1-6.7c1.7-5.6-2-9.6-7.7-8.9-5.7.7-4.2,4.5-8.5,2s-10.1-11.2-11.2-12.9c-4.1-6,1.5-11.6,4.2-17.6s3.3-12.5,7.9-13.3c8-1.5,18.1-.4,26.4-1.2,4.4,1.5,2.8,4.6,3.3,7.9s7.2,5.2,9.1.3,4-19.2,3.7-20.8c-.5-2.5-3.4-4.3-5.8-3.7-6.2,1.7-1.6,11.1-9.1,10.9l-23.1-9.9-3.6-4.1c-.2-5.8,0-11.7-.7-17.5s-3.1-12.1-3.4-16.6,1.1-4.1,2.5-5.4,12.2-8.5,13.1-8.7c5.3-1.2,5.1,4.4,10,5.1s7.7-3.7,7.1-8.4-3.4-10.2-4.4-11.5c-3.1-4-10.1-3.1-11.7,1.8-1.6,4.9,2.8,8.8-3.8,10.4s-11.9,2-14.6,2-3.6-.8-4.9-2.2-5.1-8.4-5.2-8.9c-1.3-4.9,3.7-8.1,7.5-4.6s2.8,5.4,3.5,5.9c1.9,1.2,6-.5,8.2-.3,0-14.7,18.5-21.2,27.7-9.7s6.1,12.7,6.5,15.9c1.7,15.3-13.1,23.4-25.6,15l-6.7,4.4c2.5,9.8,3.5,20,3.5,30.2h.4Z"/>
    <path class="cls-1" d="M193.3,201.2c0,11.2-9.1,20.4-20.4,20.4s-20.4-9.1-20.4-20.4,9.1-20.4,20.4-20.4,20.4,9.1,20.4,20.4h0ZM184.5,201.2c0-6.4-5.2-11.5-11.5-11.5s-11.5,5.2-11.5,11.5,5.2,11.5,11.5,11.5,11.5-5.2,11.5-11.5Z"/>
    <path class="cls-1" d="M223.8,108.5c25.8-2.1,28.1,32.3,2.7,33.4-24.1,1.1-27.1-31.4-2.7-33.4ZM224.4,117.3c-15.5,1.6-8.4,20.3,5.8,14.7s4.4-15.8-5.8-14.7Z"/>
    <path class="cls-1" d="M139.4,222.1c0,8.8-7.2,16-16,16s-16-7.2-16-16,7.2-16,16-16,16,7.2,16,16ZM130.6,222c0-3.9-3.2-7.1-7.1-7.1s-7.1,3.2-7.1,7.1,3.2,7.1,7.1,7.1,7.1-3.2,7.1-7.1Z"/>
    <path class="cls-1" d="M251,192.9c0,8.8-7.1,15.8-15.8,15.8s-15.8-7.1-15.8-15.8,7.1-15.8,15.8-15.8,15.8,7.1,15.8,15.8ZM242.2,192.9c0-3.9-3.1-7-7-7s-7,3.1-7,7,3.1,7,7,7,7-3.1,7-7Z"/>
    <path class="cls-1" d="M208.5,248.6c0,8.6-7,15.5-15.5,15.5s-15.5-7-15.5-15.5,7-15.5,15.5-15.5,15.5,7,15.5,15.5h0ZM199.7,248.6c0-3.7-3-6.7-6.7-6.7s-6.7,3-6.7,6.7,3,6.7,6.7,6.7,6.7-3,6.7-6.7Z"/>
    <path class="cls-1" d="M223.8,225.1c3.6-.7,10-.5,10.2,4.3s-7.1,4.9-11,4.4-5-7.7.8-8.7Z"/>
    <path class="cls-1" d="M187.9,97.9c2.7-.6,9.6-.7,10.6,2.6,1.9,6.2-5.4,6.6-9.6,6.1s-5.7-7.7-1-8.7Z"/>
    <path class="cls-1" d="M152,239.8c3.1-.7,9.3-.5,9.6,3.7s-5.3,5.6-9.1,4.9-5-7.7-.5-8.7v.1Z"/>
    <path class="cls-1" d="M112,175c10.3-1.7,11.4,9.9,1.1,9.3s-7.5-8.2-1.1-9.3Z"/>
    <path class="cls-1" d="M203.8,162.7c3.3-.8,9.4-.9,9.6,3.7.3,7-11.6,6.1-12.4,1.7s.3-4.9,2.8-5.4h0Z"/>
    <g>
      <path class="cls-1" d="M29.1,167.2c3.1-14.7,21.8-17.2,28-3.5l17.2-4.2c1-8.6,3.6-17.3,6.9-25.2s5.2-9.7,4.9-10.8l-6.7-7.3c-11.5,7.3-25-4.1-19.4-16.7s10.5-14.4,13.1-15.8c10.1-5.3,20.6,3.2,19.9,14l9,4c.7,0,9-8.1,10.5-9.3,4.3-3.5,9-6.4,13.5-9.4l-2.1-16.5c-13.9,3-23.3-14.5-12.3-23.8s20.7-9.3,23.8-9.7c14.3-1.9,21.4,13.8,11.5,23.8l9.7,13.9,22.3-3,2.1-6.2c-2.5-3.5-5.6-6.1-6.3-10.8-3.6-23,31.5-24.8,37.6-7.5s-.6,14.8-7,19.5l.5,8.4c9.8,1.8,18.7,6.3,27.6,10.4l12.4-10.1c.2-1.1-2.2-4-2.7-5.5-3.6-10.7,5.8-19.9,16.7-17.3s21.4,14.8,23.2,18.6c4.3,9.4-1.9,19.2-12.2,19.7s-3.4-1.3-4.7.1l-6.7,14.5c6.9,12.9-10.7,9.7-9.5,0s9-21,10.5-23.1c4.4-6.5,6.8.8,12.5-1s3-5.3,1.4-7.4c-4.5-2.3-12-11.2-16.2-12.7s-8.8,2.8-5.9,7,7,3.7,5,8.5l-21.7,17.7-2.3.5c-6.1-2.4-11.7-5.8-17.9-8.1s-15-3.6-16.8-6.2-1.2-3.2-1.5-4.9-1.6-11.4-1.1-13.3c.8-3.8,6.1-2.8,7.9-7.4,3.1-7.9-5.8-10.5-11.9-10.7s-9.3,3.1-8.5,8.5,7.8,4.8,8,9.6-4,12.8-4.8,14.3c-3.1,6-8.2,3.6-13.5,4.1s-12.7,2.9-17.1,3-3.6-.8-5-2.1l-14.5-20.9c-2-6.1,4.8-5.7,6-9.4s-2.5-6.5-6.4-5.8-13.5,4.9-16.1,6.2-6.4,5.2-2.8,8.4,11.4-4.7,14.2,2.3c2.8,7,3.7,20.7,3.8,24.5s0,1.9-.1,2.8c-.7,3.1-11.7,9.2-14.9,11.6s-5.1,4.1-7.4,6.1c-3.6,3.2-6.1,8.9-11.8,7.1-2.9-1.8-17.4-6.5-18.1-8.9-1.2-3.7,3.1-7-.7-9.9s-3.6-1.2-5.4,0-8.6,10.8-9,12.2.6,4.7,2.9,5.2c5.4,1,6.5-7.8,12.2-3.5s8.2,9.4,9.8,11.5c6.1,7.9,1.4,9.5-1.9,17-3.3,7.5-4.9,12.9-6.7,19.8s-.5,11.5-5.4,13.4-21.7,5.8-24.7,5.9c-6.5.2-3.6-8.3-8.3-9.7s-7,1.1-7.7,5-.6,14-.2,17.5,5,7.1,8.9,4.1-.3-10,6.2-11.5c7.6,1.8,15.6,2.9,23.1,5.1s4.9,1.1,6.1,3.9,2,8.9,2.1,10.3c.1,3.8-2.8,5.6-6.3,4.5s-2.6-7.3-4.1-10l-16.2-3.8c-4,15.4-24.4,15.5-28.6,0v-21.8l.1.2Z"/>
      <path class="cls-1" d="M147.9,105.6c23.1-2.3,37.5,17.9,29.3,39.3-8.2,21.4-3.4,8.8-8,7.4-6.4-2-.6-9,.4-12.6,8-27.8-27.2-33.6-42.4-12.3-15.2,21.3-2.4,35.2,18.6,32.7,4-.5,11.3-5.6,14.2-2.3,5.7,6.6-9.2,10.6-13.6,11.1-46.5,4.9-41.1-59.1,1.4-63.3h.1Z"/>
    </g>
  </g>
  <path class="cls-1" d="M325.5,9.9c13.5,0,24.6,11,24.6,24.6v290.9c0,13.5-11,24.6-24.6,24.6H34.6c-13.5,0-24.6-11-24.6-24.6V34.5c0-13.5,11-24.6,24.6-24.6h290.9M325.5-.1H34.6C15.5-.1,0,15.4,0,34.5v290.9c0,19.1,15.5,34.6,34.6,34.6h290.9c19.1,0,34.6-15.5,34.6-34.6V34.5C360.1,15.4,344.6-.1,325.5-.1h0Z"/>
</svg>