<?xml version="1.0" encoding="UTF-8"?>
<svg id="Layer_1" data-name="Layer 1" xmlns="http://www.w3.org/2000/svg" viewBox="0 0 360 360">
  <g>
    <path class="cls-1" d="M98.4,223.5c11.8-3.6,29-4.7,39.8,2s5.7,4.8,5.7,6.8v14c11.8-3.6,29-4.7,39.8,2s5.7,4.8,5.7,6.8v47.6h9.1v-42.4c0-.7,2.5-3.1,3.1-3.1h33.3v-33.3c0-.7,2.5-3.1,3.1-3.1h33.3v-42.4c0-1.9,3.2-3,4.8-3.2,11.6-1,24.7.8,36.5,0,1.8,0,3.3,1.2,4,2.8l.3,129.6c0,2.3-1.9,4.2-4.3,4.3h-128.7c-14.1,6-31.3,6.7-44.9-1.1-13.2,7.9-32.2,7.5-45.6,0-7.2,4.8-17.2,6.1-25.8,5.6-7.7-.4-23-3.3-24.2-12.8l.3-117.1c2.5-9.9,22-11.8,30.2-11.4s17.1,2.5,21.4,7.1c4.3,4.6,2.8,4.2,2.8,4.6v36.7h.3ZM66.4,184.3c-2,.2-12.5,2.2-13,4.1s7.6,3.8,9,4.1c6.6,1.2,15.6,1.1,21.9-1.1s6.3-2.9.8-5.1-13.2-2.5-18.7-2h0ZM308,184.2h-27.3v118.5h27.3v-118.5h0ZM89.3,199.5c-12,3.8-24.4,3.8-36.4,0v11.7c9.5,6.7,26.9,6.7,36.4,0v-11.7ZM89.3,222.3c-12,3.8-24.4,3.8-36.4,0v11.7c9.5,6.7,26.9,6.7,36.4,0v-11.7ZM111.9,229.9c-2,.2-12.5,2.2-13,4.1s7.6,3.8,9,4.1c6.6,1.3,14,1,20.5-.8s8.9-2.7,2.2-5.4-13.2-2.5-18.7-2h0ZM271.5,229.7h-27.3v72.9h27.3v-72.9h0ZM89.3,245.1c-12,3.8-24.4,3.8-36.4,0v11.7c9.5,6.7,26.9,6.7,36.4,0v-11.7ZM134.8,245.1c-12,3.8-24.4,3.8-36.4,0v11.7c9.5,6.7,26.9,6.7,36.4,0v-11.7ZM157.5,252.7c-2,.2-12.5,2.2-13,4.1s7.6,3.8,9,4.1c6.6,1.3,14,1,20.5-.8s8.9-2.7,2.2-5.4-13.2-2.5-18.7-2h0ZM235.1,266.2h-27.3v36.4h27.3v-36.4ZM89.3,267.9c-12,3.8-24.4,3.8-36.4,0v11.7c9.5,6.7,26.9,6.7,36.4,0v-11.7ZM134.8,267.9c-12,3.8-24.4,3.8-36.4,0v11.7c9.5,6.7,26.9,6.7,36.4,0v-11.7ZM180.4,267.9c-12,3.8-24.4,3.8-36.4,0v11.7c9.5,6.7,26.9,6.7,36.4,0v-11.7ZM89.3,290.7c-12,3.8-24.4,3.8-36.4,0v11.7c9.5,6.7,26.9,6.7,36.4,0v-11.7ZM134.8,290.7c-12,3.8-24.4,3.8-36.4,0v11.7c9.5,6.7,26.9,6.7,36.4,0v-11.7ZM180.4,290.7c-12,3.8-24.4,3.8-36.4,0v11.7c9.5,6.7,26.9,6.7,36.4,0v-11.7Z"/>
    <path class="cls-1" d="M66.5,147.7l.5,17.6-8.5.9c-7.2-49.5,22.3-97.7,68.2-115.8,45.9-18.1,129.5,11,145.8,73.8.6,2.5,4,17.5,2.7,18.4l-8.5.5c-2.4-24-13.1-46.9-30.7-63.2l-22.4,19.2c-.6,2.4,8.4,17.9,7.9,22s-12.9,16.5-15.1,20.8c-.8.8-1.7,1-2.8,1.1-6.7.8-14.7-.7-21.5.1l-13.5,9.6,14.2,21.9c3.5,1.3,20.5-2,20.5,3.4v33.3h-9.1v-27.3h-15.1c-.4,0-1.8-1.3-2.2-1.7-2.5-2.6-17-24.4-18.5-27.7s-1.1-3.9.8-5.9,18.4-14.2,19.6-14.6l22.2-.5,10.4-13.5c.4-.7,0-1.2-.1-1.8-1.6-5.9-6.8-14-7.9-19.5s-.3-2,.1-3l25.4-22.5c-3.7-2.5-7.3-5.4-11.2-7.6s-6.2-3.5-7.6-3.9-1-.3-1.4.3l-27.9,28c-1.3,8.3.7,17.8-.3,25.9s-.2,1.8-.9,2.5l-28.9,19.5c-1.6.8-3.5.7-4.9-.4l-17.5-17.2c-6.7-.8-14.4.7-21-.1s-2.9-15.1-4.4-20.4l-15-8.7c-1.4,0-5.2,6.5-6.2,8-7.3,11.7-12.6,25.5-14,39.2h23.1c2.2,0,12,16.3,14.9,18.1h34.1c0,.1,3.1,1.5,3.1,1.5l14.3,23.8c.9,1.9.6,4.1-1,5.5l-16.8,12.8v11.1h-9.1v-15.1c0-1.8,14.3-11.3,16.6-13.2l-9.8-17.2-35.8-.4c-5.6-5.1-9.2-12.4-14.5-18h-20.2l-.1.4ZM112,111.3h19.6l17.6,16.5,21.4-14,1-27.5,27.5-27.8c.6-.5.7-.7,0-1.1-1.2-.8-7.3-2.3-9.2-2.7-28.6-6.8-59.1-.5-82.7,16.8-2.2,1.6-12.7,10.3-13.5,12.2s.4.8.7,1c4.4,2.7,12.1,6.3,15.8,9.3s1.7,1.9,1.7,2.3v15.1l.1-.1Z"/>
    <path class="cls-1" d="M308,147.7h-9.1l-.3-6.8-94,93.4h-24.2v-9.1h20.8l90.8-90.8-6.8-.3v-9.1h19.6c.7,0,3.1,2.5,3.1,3.1v19.6h.1Z"/>
    <rect class="cls-1" x="162.2" y="225.2" width="9.1" height="9.1"/>
  </g>
  <path class="cls-1" d="M325.5,9.9c13.5,0,24.6,11,24.6,24.6v290.9c0,13.5-11,24.6-24.6,24.6H34.6c-13.5,0-24.6-11-24.6-24.6V34.5c0-13.5,11-24.6,24.6-24.6h290.9M325.5-.1H34.6C15.5-.1,0,15.4,0,34.5v290.9c0,19.1,15.5,34.6,34.6,34.6h290.9c19.1,0,34.6-15.5,34.6-34.6V34.5C360.1,15.4,344.6-.1,325.5-.1h0Z"/>
</svg>