<?xml version="1.0" encoding="UTF-8"?>
<svg id="Layer_1" data-name="Layer 1" xmlns="http://www.w3.org/2000/svg" viewBox="0 0 360 360">
  <g>
    <path class="cls-1" d="M141.5,31.85c3.4.9,6.6,1.6,9.8,3.1,9.2,4.3,15,12.7,17.7,22.3,1.5,1,17.6-.3,21.2.3s4.5,2.6,4.5,3.8v8.7h23c1.8,0,7.8,2,9.7,2.9,11.7,5.2,17.9,16.6,18.7,29.1,1.6,24.5-1.2,50.6,0,75.3,0,9.1-11.9,10.3-13.1,1.1-1.8-25.4,2.3-53.8,0-78.8-.7-7.5-6.6-14.1-13.8-16.1-4.6-1.3-17.5-1.5-22.4-.9s-1.5,0-2.1.9v9.6c0,6.1-10.1,15.3-16.5,15.2-25.8-1.5-54.5,2.3-80,0-13.6-1.2-19.6-13.1-18.2-25.7-16.4-.5-36.6-2.2-38.3,19.4v165.5c.8,10.6,7.7,18,18.3,19.3l93.3.5c5.4,3,3.8,11.5-2.5,12.1H57.7c-14.7-1.9-25.7-13.1-28.4-27.5V97.55c1.2-12,15.5-27.5,27.8-27.5h23c-.3-4.7-.4-11.8,5.7-12.6,3.2-.4,19.5.6,20.5,0,2.2-10.2,9.6-19.5,19.4-23.3,1.7-.7,5.9-2.1,7.6-2.3h8.4-.2ZM182.1,70.05h-20.6c-.6,0-3.3-2-3.8-2.8-1.8-2.8-1-7.4-2.6-11.1-6.8-16.2-30.3-15.1-35.7,1.6-1,2.9-.8,7.5-2.2,9.7s-3.2,2.6-3.5,2.6h-20.6v21.2c0,1.8,4.9,4.7,6.9,4.5,24.1-1.6,50.9,2.1,74.7,0,1.6-.1,3.7-.5,5-1.5s2.4-3.2,2.4-3.6v-20.6h0Z"/>
    <path class="cls-1" d="M295.5,177.15c7.8-.9,13,2.5,18.4,7.6s14.4,13.9,17.6,18.2c4.4,6,4.8,14.8.8,21.2l-102.4,103c-15.5,5-32.2,6.6-48.1,10.4-4.6.3-7.6-2.7-7.3-7.3.7-13.7,7.9-31.1,9.1-45.3l1.4-2.8,100-100.1c3.1-2.5,6.6-4.4,10.6-4.9h-.1ZM189.3,322.75l32.4-6.1,2-1,96.8-96.8c2.1-2.4,2.5-5.3.9-8.1-6.5-4.9-13.4-15.4-19.8-19.7s-4-1.7-6.5-.6l-98.9,98.2-6.9,34v.1Z"/>
    <path class="cls-1" d="M69.4,135.35c1-.9,2.9-1.4,4.3-1.4l130.4.5c5.6,3.4,4.3,11.3-2.5,12.1h-127.3c-5.9.4-9.3-7.3-4.9-11.2h0Z"/>
    <path class="cls-1" d="M69.4,173.55c1-.9,2.9-1.4,4.3-1.4l130.4.5c5.6,3.4,4.3,11.3-2.5,12.1h-127.3c-5.9.4-9.3-7.3-4.9-11.2h0Z"/>
    <path class="cls-1" d="M69.4,211.85c1-.9,2.9-1.4,4.3-1.4l130.4.5c5.6,3.4,4.3,11.3-2.5,12.1h-127.3c-5.9.4-9.3-7.3-4.9-11.2h0Z"/>
  </g>
  <path class="cls-1" d="M325.4,9.95c13.5,0,24.6,11,24.6,24.6v290.9c0,13.5-11,24.6-24.6,24.6H34.6c-13.5,0-24.6-11-24.6-24.6V34.55c0-13.5,11-24.6,24.6-24.6h290.9M325.4-.05H34.6C15.5-.05,0,15.45,0,34.55v290.9c0,19.1,15.5,34.6,34.6,34.6h290.9c19.1,0,34.6-15.5,34.6-34.6V34.55C360.1,15.45,344.6-.05,325.5-.05h-.1Z"/>
</svg>