<?xml version="1.0" encoding="UTF-8"?>
<svg id="Layer_1" data-name="Layer 1" xmlns="http://www.w3.org/2000/svg" viewBox="0 0 360 360">
  <g>
    <path class="cls-1" d="M40.3,185.8l-.7,17.1c2.9,76.8,71.2,133.2,147.6,120.3,6-1,11.9-2.8,17.8-4.1-18.8-12.7-36.7-28.1-48.6-47.7s-7.3-53.4,27.1-49.4c15.7,1.8,24.9,6.8,38.5-5,17.7-15.3,22-38.5,50.9-41.4,5.2-.5,10.5.4,15.7.2-2.9-12.1-6.8-23.8-12.5-34.9-1.1-.7-10.4,1.1-12.6,1.2-44.7,2.1-73.4-28.4-70.3-72.8.2-3,.9-11.6,4.1-12.6,4.8-1.4,7.4,3.7,11,6.1,14.6,9.8,37.2,7.6,53.2,14.8,9.2-14.7,29.3-24.4,36.6-40.2s3.3-17.3,11.8-8.7c31.1,31.7,25.6,79-12.1,102.5-4.2,2.6-8.7,4.4-12.9,6.9,5.8,12.3,10.4,25.2,12.7,38.6,16.5,98.2-75.4,180-171.1,151.3C37.5,301.1,2.1,192.1,58.7,117.7c21.6-28.4,59.1-50.8,95.3-52.7s8,2.7,9,10.8c2.2,18.3,15.5,40.3,2.7,57.9s-26.8,10-41.1,13.5-13.5,18.7-16.4,31.9c-6.8,31.3-42.2,33-62.4,12.6s-4.8-6.8-5.6-5.9h.1ZM283.1,128.2c15.6-6.7,31-20.1,35.9-36.9,5.2-18-.5-37.4-12-51.7-7.6,18.1-26.6,26.9-37.4,42.6l.2,1.4c10.6,12,12.1,29.3,13.3,44.6ZM273.2,128.8c0-11.3-2.2-31-10.5-39.4s-35.9-9.6-48.9-14.3-7.4-3.5-11.2-5.2c-2.2,20.7,6.3,43.9,24.8,54.8,9.2,5.4,20.4,7.9,31,7.7l-17.6-11.8c-4.2-3.5-19.6-19.1-20-24s4.8-6.5,8.2-3.2,6.3,9.1,9.6,12.7c9.3,10,21.9,17.9,34.7,22.6l-.1.1ZM153.7,74.3c-47.2,3.9-89.3,36-105.9,80.2-16.6,44.2-5.4,14.8-4.7,17.7s4.5,7.8,6.2,9.9c9.6,11.3,24.6,18.7,38.9,11,15.8-8.4,9.5-28.7,17-42.4,13-23.7,52-3.8,56.2-30.5,2.5-15.9-7.1-30.2-7.8-45.9h.1ZM289.8,185.9c-5.9-1.7-11.4-2.2-17.5-1.3-33.4,5.2-32.9,50.4-72.6,48.9-12-.5-33.1-9.6-40.3,4.9s-2.1,5.5-2.2,7.8c-.4,18.3,26.6,45.8,40.4,56.3s15.8,11.4,18.3,11.5c49.4-20.3,80.5-74.9,73.9-128.1Z"/>
    <path class="cls-1" d="M87.9,226.8c4.1,0,8.8,1.3,12.3,3.4s6.6,7.5,11.7,10c7.8,3.7,12.8,3.9,16.4,13.4,10.4,27.5-28.5,29.4-44.6,19.2-6.5-4.1-15.7-15.4-17.1-23.1-2.6-13.9,8.1-22.7,21.3-22.8v-.1ZM82.9,236.7c-2.8.5-6.9,3.8-7.6,6.7-1.5,6,6.9,17.2,11.5,20.7,6.7,5.2,16.8,5.8,25,4.6s11.6-4.8,7.8-12.7-9.6-6.1-14.5-9.1-7.3-9.7-13.7-10.4-6.5-.2-8.5.1v.1Z"/>
  </g>
  <path class="cls-1" d="M325.4,9.9c13.5,0,24.6,11,24.6,24.6v290.9c0,13.5-11,24.6-24.6,24.6H34.6c-13.5,0-24.6-11-24.6-24.6V34.5c0-13.5,11-24.6,24.6-24.6h290.9M325.4-.1H34.6C15.5-.1,0,15.4,0,34.5v290.9c0,19.1,15.5,34.6,34.6,34.6h290.9c19.1,0,34.6-15.5,34.6-34.6V34.5C360.1,15.4,344.6-.1,325.5-.1h-.1Z"/>
</svg>