<?xml version="1.0" encoding="UTF-8"?>
<svg id="Layer_1" data-name="Layer 1" xmlns="http://www.w3.org/2000/svg" viewBox="0 0 360 360">
  <path class="cls-1" d="M35.6,172.9c1.4-19.6,10.5-39,23.4-53.6,5.4-6.1,12.3-12.3,18.9-16.9.7-1-5.5-5.2-6.5-6.2-13.6-12.6-23.7-26.5-26.1-45.5s-2.2-15.8,5.8-14.9,4.7,8.9,5.5,13.7c8.6,56.2,95.1,61.7,99.2,125.2,2,31.2-14.9,52.7-38.9,70l9.9,6.5c30-20.6,47.1-53.4,38.3-90.2-6-25.5-24.3-41.7-44.3-56.6-19.2-14.3-48.9-29.4-52.8-55.5-.7-4.7-1.7-13.8,5.7-13.1s4.2,12,6.9,16.9h52.9c3.3-4.6-.5-16.1,6.9-16.9,9.6-1.1,5.9,14.4,4.3,19.6-4.3,14.1-16.7,23.8-27.8,32.6l9.4,6.4c2,.4,15.1-12.5,17.1-14.8,8.7-9.9,12.9-19.7,14.6-32.8.5-3.7-1-9.6,4.4-10.8,11-2.4,5.7,17,5.2,22.4h100.9c2-11.9,13.2-21.6,25.1-22.5,24.5-2,40.1,26.6,24.5,45.9-15.2,18.9-45,11.1-49.9-12.1h-104.7c-6.3,12.6-16,23.7-27.4,31.6,11.5,10.3,23.2,20.7,30.8,34.4h61.8c4.9-15.2,22.5-22.2,35.8-12.1,19.8,15,4,47.1-21.2,39.3-7.7-2.4-12-9-15.1-15.9h-55.5c7.7,21.6,7.7,44.9,0,66.5h55.5c3-7,7.4-13.6,15.1-15.9,25.3-7.8,41,24.3,21.2,39.3-13.3,10.1-30.9,3.1-35.8-12.1h-61.8c-4.5,8.4-11,15.2-17.3,22.3l-13.6,12.1c11.4,8,21.1,19.1,27.4,31.6h104.7c4.9-23.3,34.7-31,49.9-12.1s3.2,43.3-18,45.9h-7.9c-11.5-2.3-21.6-10.6-23.7-22.6h-100.9c0,7,5.4,18.4-2.3,22.6h-3.4c-.8-.9-2.1-1.5-2.8-2.5-1.6-2.3-1.3-9.3-1.9-12.8-8-51.2-87-59.5-97.7-115.5-3.9-20.2.6-39.5,13.3-55.5s15.6-15.7,24.2-22.6l-9.3-6.5c-1,0-6.4,4.3-7.6,5.3-42.2,34.3-45.1,89.5-5.1,126.9,21.1,19.7,65.6,39.2,70.9,68.9s2.2,11.1-3.2,14.2h-3.4c-6.2-3-3-11.1-5.6-16.6l-53.6-.3c-2.1,5.5.8,14.1-5.7,16.9h-3.4c-.8-.8-1.9-1.3-2.5-2.3-1.7-2.6-1.1-7.7-.7-10.8,2.5-17.4,16.3-28.9,29.1-39.1l-9.4-6.4c-15.7,10.6-28.2,25.5-31.1,44.8s1,11.4-4.6,13.7h-3.4c-3.3-2.3-4.1-4.2-4-8.2.7-21.9,11.6-38.2,27.1-52.4s6.9-4.9,6.2-5.9c-3-1.9-6.4-4.6-9-7.1-14.6-13.5-26.2-29.6-30.8-49.2l-2.4-14.2c.2-4.8-.3-9.9,0-14.7l.2.2ZM312.9,64.1c0-9.4-7.6-17-17-17s-17,7.6-17,17,7.6,17,17,17,17-7.6,17-17ZM126.3,64h-38.9c5.5,6.6,12.5,11.8,19.5,16.7,1.9-.5,20.8-15.7,19.4-16.7ZM130.8,143.5c-7-7.9-14.9-15.2-23.9-20.8-8.5,5.8-17.4,12.5-23.5,20.8h47.4ZM262,141.5c0-6.3-5.1-11.3-11.3-11.3s-11.3,5.1-11.3,11.3,5.1,11.3,11.3,11.3,11.3-5.1,11.3-11.3ZM69.9,174.5h74.4c-.9-6.7-2.6-13.3-5.6-19.4l-62.8-.3c-2.4.8-6.6,16.5-6,19.6v.1ZM144.4,185.8h-74.4c-.6,3.2,3.6,18.8,6,19.6l62.8-.3c2.9-6.1,4.7-12.6,5.6-19.4v.1ZM262,218.9c0-6.3-5.1-11.4-11.3-11.4s-11.3,5.1-11.3,11.4,5.1,11.4,11.3,11.4,11.3-5.1,11.3-11.4ZM130.8,216.8h-47.4c-.2,1,.4,1.1.8,1.7,2.2,2.9,20.1,18.8,22.6,19.1,9-5.6,16.8-12.9,23.9-20.8h.1ZM126.3,296.4c-.9-3-18.2-16.8-19.4-16.7-7,4.9-13.9,10.1-19.5,16.7h38.9ZM312.9,296.3c0-9.4-7.6-17-17-17s-17,7.6-17,17,7.6,17,17,17,17-7.6,17-17Z"/>
  <path class="cls-1" d="M325.5,9.9c13.5,0,24.6,11,24.6,24.6v290.9c0,13.5-11,24.6-24.6,24.6H34.6c-13.5,0-24.6-11-24.6-24.6V34.5c0-13.5,11-24.6,24.6-24.6h290.9M325.5-.1H34.6C15.5-.1,0,15.4,0,34.5v290.9c0,19.1,15.5,34.6,34.6,34.6h290.9c19.1,0,34.6-15.5,34.6-34.6V34.5C360.1,15.4,344.6-.1,325.5-.1h0Z"/>
</svg>